<?xml version="1.0" encoding="UTF-8" standalone="no"?>
<!DOCTYPE svg PUBLIC "-//W3C//DTD SVG 1.1//EN" "http://www.w3.org/Graphics/SVG/1.1/DTD/svg11.dtd">
<svg width="100%" height="100%" viewBox="0 0 573 448" version="1.1" xmlns="http://www.w3.org/2000/svg" xmlns:xlink="http://www.w3.org/1999/xlink" xml:space="preserve" xmlns:serif="http://www.serif.com/" style="fill-rule:evenodd;clip-rule:evenodd;stroke-linecap:round;stroke-linejoin:round;stroke-miterlimit:1.5;">
    <g transform="matrix(1,0,0,1,-33.809,-14.1558)">
        <g transform="matrix(1.6,0,0,1.2,0,0)">
            <g id="ninja" transform="matrix(1.503,0,0,1.21293,-100.601,-59.9835)">
                <g transform="matrix(0.415834,0,0,0.687041,109.921,55.5832)">
                    <path d="M245.647,76.367C251,90.974 264.917,105.886 267.636,108.054C271.589,111.205 285.75,117.764 289.726,121.062C296.976,127.077 335.192,224.165 323.209,247.449C309.295,274.484 267.959,300.459 260.188,306.34" style="fill:none;stroke:rgb(61,93,109);stroke-width:8px;"/>
                </g>
                <g transform="matrix(0.415834,0,0,0.687041,109.921,55.5832)">
                    <path d="M246.939,45.559C246.626,42.89 246.938,56.274 246.538,64.956C246.29,70.344 245.946,75.258 245.486,77.034C244.924,79.201 240.963,104.159 232.433,112.412" style="fill:none;stroke:rgb(61,93,109);stroke-width:8px;"/>
                </g>
                <g transform="matrix(0.415834,0,0,0.687041,109.921,55.5832)">
                    <path d="M349.394,372.062C351.232,371.012 388.445,358.544 360.659,318.27C354.562,309.433 302.8,277.945 298.725,276.893" style="fill:none;stroke:rgb(61,93,109);stroke-width:8px;"/>
                </g>
                <g transform="matrix(0.415834,0,0,0.687041,8.8184,0)">
                    <path d="M468.222,152.719L476.561,151.454" style="fill:none;stroke:rgb(61,93,109);stroke-width:8px;"/>
                </g>
                <g transform="matrix(-0.415834,0,0,0.687041,290.079,55.5832)">
                    <path d="M245.647,76.367C251,90.974 264.917,105.886 267.636,108.054C271.589,111.205 285.75,117.764 289.726,121.062C296.976,127.077 335.192,224.165 323.209,247.449C309.295,274.484 267.959,300.459 260.188,306.34" style="fill:none;stroke:rgb(61,93,109);stroke-width:8px;"/>
                </g>
                <g transform="matrix(-0.415834,0,0,0.687041,290.079,55.5832)">
                    <path d="M247.26,45.996C247.26,45.996 246.938,56.274 246.538,64.956C246.29,70.344 245.946,75.258 245.486,77.034C244.924,79.201 240.963,104.159 232.433,112.412" style="fill:none;stroke:rgb(61,93,109);stroke-width:8px;"/>
                </g>
                <g transform="matrix(-0.415834,0,0,0.687041,290.079,55.5832)">
                    <path d="M349.394,372.062C351.232,371.012 388.445,358.544 360.659,318.27C354.562,309.433 302.8,277.945 298.725,276.893" style="fill:none;stroke:rgb(61,93,109);stroke-width:8px;"/>
                </g>
                <g transform="matrix(-0.415834,0,0,0.687041,391.182,0)">
                    <path d="M468.222,152.719L476.561,151.454" style="fill:none;stroke:rgb(61,93,109);stroke-width:8px;"/>
                </g>
                <g transform="matrix(0.415834,0,0,0.687041,-1.18187e-14,0)">
                    <path d="M450.367,127.262C448.428,81.012 510.947,73.998 511.265,129" style="fill:none;stroke:rgb(61,93,109);stroke-width:8px;"/>
                </g>
            </g>
        </g>
        <g transform="matrix(1.6,0,0,1.2,0,0)">
            <g id="plants" transform="matrix(1.503,0,0,1.21293,-100.601,-59.9835)">
                <g transform="matrix(1,0,0,1,11.6396,0)">
                    <g transform="matrix(0.415834,0,0,0.594264,-7.93082,41.7613)">
                        <path d="M692.542,450.128L692.542,165.437" style="fill:none;stroke:rgb(61,93,109);stroke-width:8.56px;"/>
                    </g>
                    <g transform="matrix(1,0,0,1,-7.48502,4.12224)">
                        <g transform="matrix(1.32514,2.1894,-1.32514,2.1894,145.735,-260.179)">
                            <path d="M155.326,28.959C155.326,28.959 150.763,34.334 150.763,36.638C150.763,39.156 152.808,41.201 155.326,41.201C157.845,41.201 159.89,39.156 159.89,36.638C159.89,34.334 155.326,28.959 155.326,28.959Z" style="fill:none;stroke:rgb(61,93,109);stroke-width:1.78px;"/>
                        </g>
                        <g transform="matrix(0.294039,0.485811,-0.248162,0.410013,119.217,-315.465)">
                            <path d="M802,272L802,234" style="fill:none;stroke:rgb(61,93,109);stroke-width:8.65px;"/>
                        </g>
                    </g>
                    <g transform="matrix(-1,0,0,1,567.589,4.12224)">
                        <g transform="matrix(1.32514,2.1894,-1.32514,2.1894,145.735,-260.179)">
                            <path d="M155.326,28.959C155.326,28.959 150.763,34.334 150.763,36.638C150.763,39.156 152.808,41.201 155.326,41.201C157.845,41.201 159.89,39.156 159.89,36.638C159.89,34.334 155.326,28.959 155.326,28.959Z" style="fill:none;stroke:rgb(61,93,109);stroke-width:1.78px;"/>
                        </g>
                        <g transform="matrix(0.294039,0.485811,-0.248162,0.410013,119.217,-315.465)">
                            <path d="M802,272L802,234" style="fill:none;stroke:rgb(61,93,109);stroke-width:8.65px;"/>
                        </g>
                    </g>
                    <g transform="matrix(1,0,0,1,-7.48502,49.4669)">
                        <g transform="matrix(1.32514,2.1894,-1.32514,2.1894,145.735,-260.179)">
                            <path d="M155.326,28.959C155.326,28.959 150.763,34.334 150.763,36.638C150.763,39.156 152.808,41.201 155.326,41.201C157.845,41.201 159.89,39.156 159.89,36.638C159.89,34.334 155.326,28.959 155.326,28.959Z" style="fill:none;stroke:rgb(61,93,109);stroke-width:1.78px;"/>
                        </g>
                        <g transform="matrix(0.294039,0.485811,-0.248162,0.410013,119.217,-315.465)">
                            <path d="M802,272L802,234" style="fill:none;stroke:rgb(61,93,109);stroke-width:8.65px;"/>
                        </g>
                    </g>
                    <g transform="matrix(-1,0,0,1,567.589,49.4669)">
                        <g transform="matrix(1.32514,2.1894,-1.32514,2.1894,145.735,-260.179)">
                            <path d="M155.326,28.959C155.326,28.959 150.763,34.334 150.763,36.638C150.763,39.156 152.808,41.201 155.326,41.201C157.845,41.201 159.89,39.156 159.89,36.638C159.89,34.334 155.326,28.959 155.326,28.959Z" style="fill:none;stroke:rgb(61,93,109);stroke-width:1.78px;"/>
                        </g>
                        <g transform="matrix(0.294039,0.485811,-0.248162,0.410013,119.217,-315.465)">
                            <path d="M802,272L802,234" style="fill:none;stroke:rgb(61,93,109);stroke-width:8.65px;"/>
                        </g>
                    </g>
                    <g transform="matrix(1,0,0,1,-7.48502,94.8116)">
                        <g transform="matrix(1.32514,2.1894,-1.32514,2.1894,145.735,-260.179)">
                            <path d="M155.326,28.959C155.326,28.959 150.763,34.334 150.763,36.638C150.763,39.156 152.808,41.201 155.326,41.201C157.845,41.201 159.89,39.156 159.89,36.638C159.89,34.334 155.326,28.959 155.326,28.959Z" style="fill:none;stroke:rgb(61,93,109);stroke-width:1.78px;"/>
                        </g>
                        <g transform="matrix(0.294039,0.485811,-0.248162,0.410013,119.217,-315.465)">
                            <path d="M802,272L802,234" style="fill:none;stroke:rgb(61,93,109);stroke-width:8.65px;"/>
                        </g>
                    </g>
                    <g transform="matrix(-1,0,0,1,567.589,94.8116)">
                        <g transform="matrix(1.32514,2.1894,-1.32514,2.1894,145.735,-260.179)">
                            <path d="M155.326,28.959C155.326,28.959 150.763,34.334 150.763,36.638C150.763,39.156 152.808,41.201 155.326,41.201C157.845,41.201 159.89,39.156 159.89,36.638C159.89,34.334 155.326,28.959 155.326,28.959Z" style="fill:none;stroke:rgb(61,93,109);stroke-width:1.78px;"/>
                        </g>
                        <g transform="matrix(0.294039,0.485811,-0.248162,0.410013,119.217,-315.465)">
                            <path d="M802,272L802,234" style="fill:none;stroke:rgb(61,93,109);stroke-width:8.65px;"/>
                        </g>
                    </g>
                    <g transform="matrix(1.87404,0,0,3.09628,-11.0352,12.5044)">
                        <path d="M155.326,28.959C155.326,28.959 150.763,34.334 150.763,36.638C150.763,39.156 152.808,41.201 155.326,41.201C157.845,41.201 159.89,39.156 159.89,36.638C159.89,34.334 155.326,28.959 155.326,28.959Z" style="fill:none;stroke:rgb(61,93,109);stroke-width:1.78px;"/>
                    </g>
                </g>
                <g transform="matrix(1,0,0,1,-171.743,0)">
                    <g transform="matrix(0.415834,0,0,0.594264,-7.93082,41.7613)">
                        <path d="M692.542,450.128L692.542,165.437" style="fill:none;stroke:rgb(61,93,109);stroke-width:8.56px;"/>
                    </g>
                    <g transform="matrix(1,0,0,1,-7.48502,4.12224)">
                        <g transform="matrix(1.32514,2.1894,-1.32514,2.1894,145.735,-260.179)">
                            <path d="M155.326,28.959C155.326,28.959 150.763,34.334 150.763,36.638C150.763,39.156 152.808,41.201 155.326,41.201C157.845,41.201 159.89,39.156 159.89,36.638C159.89,34.334 155.326,28.959 155.326,28.959Z" style="fill:none;stroke:rgb(61,93,109);stroke-width:1.78px;"/>
                        </g>
                        <g transform="matrix(0.294039,0.485811,-0.248162,0.410013,119.217,-315.465)">
                            <path d="M802,272L802,234" style="fill:none;stroke:rgb(61,93,109);stroke-width:8.65px;"/>
                        </g>
                    </g>
                    <g transform="matrix(-1,0,0,1,567.589,4.12224)">
                        <g transform="matrix(1.32514,2.1894,-1.32514,2.1894,145.735,-260.179)">
                            <path d="M155.326,28.959C155.326,28.959 150.763,34.334 150.763,36.638C150.763,39.156 152.808,41.201 155.326,41.201C157.845,41.201 159.89,39.156 159.89,36.638C159.89,34.334 155.326,28.959 155.326,28.959Z" style="fill:none;stroke:rgb(61,93,109);stroke-width:1.78px;"/>
                        </g>
                        <g transform="matrix(0.294039,0.485811,-0.248162,0.410013,119.217,-315.465)">
                            <path d="M802,272L802,234" style="fill:none;stroke:rgb(61,93,109);stroke-width:8.65px;"/>
                        </g>
                    </g>
                    <g transform="matrix(1,0,0,1,-7.48502,49.4669)">
                        <g transform="matrix(1.32514,2.1894,-1.32514,2.1894,145.735,-260.179)">
                            <path d="M155.326,28.959C155.326,28.959 150.763,34.334 150.763,36.638C150.763,39.156 152.808,41.201 155.326,41.201C157.845,41.201 159.89,39.156 159.89,36.638C159.89,34.334 155.326,28.959 155.326,28.959Z" style="fill:none;stroke:rgb(61,93,109);stroke-width:1.78px;"/>
                        </g>
                        <g transform="matrix(0.294039,0.485811,-0.248162,0.410013,119.217,-315.465)">
                            <path d="M802,272L802,234" style="fill:none;stroke:rgb(61,93,109);stroke-width:8.65px;"/>
                        </g>
                    </g>
                    <g transform="matrix(-1,0,0,1,567.589,49.4669)">
                        <g transform="matrix(1.32514,2.1894,-1.32514,2.1894,145.735,-260.179)">
                            <path d="M155.326,28.959C155.326,28.959 150.763,34.334 150.763,36.638C150.763,39.156 152.808,41.201 155.326,41.201C157.845,41.201 159.89,39.156 159.89,36.638C159.89,34.334 155.326,28.959 155.326,28.959Z" style="fill:none;stroke:rgb(61,93,109);stroke-width:1.78px;"/>
                        </g>
                        <g transform="matrix(0.294039,0.485811,-0.248162,0.410013,119.217,-315.465)">
                            <path d="M802,272L802,234" style="fill:none;stroke:rgb(61,93,109);stroke-width:8.65px;"/>
                        </g>
                    </g>
                    <g transform="matrix(1,0,0,1,-7.48502,94.8116)">
                        <g transform="matrix(1.32514,2.1894,-1.32514,2.1894,145.735,-260.179)">
                            <path d="M155.326,28.959C155.326,28.959 150.763,34.334 150.763,36.638C150.763,39.156 152.808,41.201 155.326,41.201C157.845,41.201 159.89,39.156 159.89,36.638C159.89,34.334 155.326,28.959 155.326,28.959Z" style="fill:none;stroke:rgb(61,93,109);stroke-width:1.78px;"/>
                        </g>
                        <g transform="matrix(0.294039,0.485811,-0.248162,0.410013,119.217,-315.465)">
                            <path d="M802,272L802,234" style="fill:none;stroke:rgb(61,93,109);stroke-width:8.65px;"/>
                        </g>
                    </g>
                    <g transform="matrix(-1,0,0,1,567.589,94.8116)">
                        <g transform="matrix(1.32514,2.1894,-1.32514,2.1894,145.735,-260.179)">
                            <path d="M155.326,28.959C155.326,28.959 150.763,34.334 150.763,36.638C150.763,39.156 152.808,41.201 155.326,41.201C157.845,41.201 159.89,39.156 159.89,36.638C159.89,34.334 155.326,28.959 155.326,28.959Z" style="fill:none;stroke:rgb(61,93,109);stroke-width:1.78px;"/>
                        </g>
                        <g transform="matrix(0.294039,0.485811,-0.248162,0.410013,119.217,-315.465)">
                            <path d="M802,272L802,234" style="fill:none;stroke:rgb(61,93,109);stroke-width:8.65px;"/>
                        </g>
                    </g>
                    <g transform="matrix(1.87404,0,0,3.09628,-11.0352,12.5044)">
                        <path d="M155.326,28.959C155.326,28.959 150.763,34.334 150.763,36.638C150.763,39.156 152.808,41.201 155.326,41.201C157.845,41.201 159.89,39.156 159.89,36.638C159.89,34.334 155.326,28.959 155.326,28.959Z" style="fill:none;stroke:rgb(61,93,109);stroke-width:1.78px;"/>
                    </g>
                </g>
            </g>
        </g>
        <g transform="matrix(1.6,0,0,1.2,0,0)">
            <g id="ninja-of-the-month" serif:id="ninja of the month" transform="matrix(2.49257,0,0,3.32343,-572.518,-1392.92)">
                <path d="M240.61,520.006L244.246,527.038L246.13,527.038L246.13,520.198C246.13,519.874 246.37,518.878 247.09,518.878L247.33,518.878L247.33,518.638L244.69,518.638L244.69,518.878L244.93,518.878C245.65,518.878 245.89,520.114 245.89,520.438L245.89,524.734L242.758,518.638L239.41,518.638L239.41,518.878L239.65,518.878C240.202,518.878 240.37,519.082 240.37,519.598L240.37,525.478C240.37,525.802 240.13,526.798 239.41,526.798L239.17,526.798L239.17,527.038L241.81,527.038L241.81,526.798L241.57,526.798C240.85,526.798 240.61,525.562 240.61,525.238L240.61,520.006Z" style="fill:rgb(61,93,109);fill-rule:nonzero;"/>
                <path d="M247.99,526.798L247.99,527.038L252.43,527.038L252.43,526.798L252.19,526.798C251.638,526.798 251.47,526.594 251.47,526.078L251.47,519.598C251.47,519.082 251.638,518.878 252.19,518.878L252.43,518.878L252.43,518.638L247.99,518.638L247.99,518.878L248.23,518.878C248.782,518.878 248.95,519.082 248.95,519.598L248.95,526.078C248.95,526.594 248.782,526.798 248.23,526.798L247.99,526.798Z" style="fill:rgb(61,93,109);fill-rule:nonzero;"/>
                <path d="M254.554,520.006L258.19,527.038L260.074,527.038L260.074,520.198C260.074,519.874 260.314,518.878 261.034,518.878L261.274,518.878L261.274,518.638L258.634,518.638L258.634,518.878L258.874,518.878C259.594,518.878 259.834,520.114 259.834,520.438L259.834,524.734L256.702,518.638L253.354,518.638L253.354,518.878L253.594,518.878C254.146,518.878 254.314,519.082 254.314,519.598L254.314,525.478C254.314,525.802 254.074,526.798 253.354,526.798L253.114,526.798L253.114,527.038L255.754,527.038L255.754,526.798L255.514,526.798C254.794,526.798 254.554,525.562 254.554,525.238L254.554,520.006Z" style="fill:rgb(61,93,109);fill-rule:nonzero;"/>
                <path d="M262.714,526.258C262.618,526.15 262.57,526.078 262.57,526.03C262.57,525.922 262.774,525.898 263.038,525.898C263.698,525.898 264.238,525.358 264.238,524.698C264.238,524.038 263.698,523.498 263.038,523.498C262.378,523.498 261.838,524.038 261.838,524.698C261.838,526.354 263.218,527.158 264.598,527.158C266.062,527.158 267.574,526.258 267.574,524.518L267.574,519.598C267.574,519.082 267.742,518.878 268.294,518.878L268.534,518.878L268.534,518.638L264.094,518.638L264.094,518.878L264.334,518.878C264.886,518.878 265.054,519.082 265.054,519.598L265.054,524.758C265.054,526.222 264.946,526.882 264.13,526.882C263.59,526.882 263.074,526.63 262.714,526.258Z" style="fill:rgb(61,93,109);fill-rule:nonzero;"/>
                <path d="M269.026,526.798L269.026,527.038L272.146,527.038L272.146,526.798L271.906,526.798C271.438,526.798 270.634,526.546 270.634,525.718C270.634,525.574 270.658,525.406 270.718,525.214L271.174,523.738L273.322,523.738L274.042,526.09C274.078,526.21 274.09,526.306 274.09,526.39C274.09,526.666 273.91,526.798 273.502,526.798L273.262,526.798L273.262,527.038L277.942,527.038L277.942,526.798L277.702,526.798C277.15,526.798 276.814,526.606 276.658,526.09L274.414,518.638L272.494,518.638L270.31,525.706C270.142,526.258 269.818,526.798 269.266,526.798L269.026,526.798ZM272.254,520.222L273.25,523.498L271.246,523.498L272.254,520.222Z" style="fill:rgb(61,93,109);fill-rule:nonzero;"/>
                <path d="M282.73,522.838C282.73,525.226 284.554,527.158 286.822,527.158C289.09,527.158 290.926,525.226 290.926,522.838C290.926,520.45 289.09,518.518 286.822,518.518C284.554,518.518 282.73,520.45 282.73,522.838ZM286.822,526.918C285.49,526.918 285.382,525.454 285.382,522.838C285.382,520.222 285.49,518.758 286.822,518.758C288.154,518.758 288.262,520.222 288.262,522.838C288.262,525.454 288.154,526.918 286.822,526.918Z" style="fill:rgb(61,93,109);fill-rule:nonzero;"/>
                <path d="M291.706,526.798L291.706,527.038L296.146,527.038L296.146,526.798L295.906,526.798C295.354,526.798 295.186,526.594 295.186,526.078L295.186,522.838L295.45,522.838C296.338,522.838 296.794,523.918 296.806,524.398L297.046,524.398L297.046,520.798L296.806,520.798C296.794,521.278 296.338,522.358 295.45,522.358L295.186,522.358L295.186,518.878L295.666,518.878C296.914,518.878 298.114,520.654 298.126,521.734L298.366,521.734L298.366,518.638L291.706,518.638L291.706,518.878L291.946,518.878C292.498,518.878 292.666,519.082 292.666,519.598L292.666,526.078C292.666,526.594 292.498,526.798 291.946,526.798L291.706,526.798Z" style="fill:rgb(61,93,109);fill-rule:nonzero;"/>
                <path d="M309.286,526.798L309.046,526.798C308.494,526.798 308.326,526.594 308.326,526.078L308.326,518.878L308.746,518.878C309.514,518.878 310.714,521.014 310.726,522.094L310.966,522.094L310.966,518.638L303.166,518.638L303.166,522.094L303.406,522.094C303.418,521.014 304.618,518.878 305.386,518.878L305.806,518.878L305.806,526.078C305.806,526.594 305.638,526.798 305.086,526.798L304.846,526.798L304.846,527.038L309.286,527.038L309.286,526.798Z" style="fill:rgb(61,93,109);fill-rule:nonzero;"/>
                <path d="M311.746,526.798L311.746,527.038L316.186,527.038L316.186,526.798L315.946,526.798C315.394,526.798 315.226,526.594 315.226,526.078L315.226,522.658L317.506,522.658L317.506,526.078C317.506,526.594 317.338,526.798 316.786,526.798L316.546,526.798L316.546,527.038L320.986,527.038L320.986,526.798L320.746,526.798C320.194,526.798 320.026,526.594 320.026,526.078L320.026,519.598C320.026,519.082 320.194,518.878 320.746,518.878L320.986,518.878L320.986,518.638L316.546,518.638L316.546,518.878L316.786,518.878C317.338,518.878 317.506,519.082 317.506,519.598L317.506,522.418L315.226,522.418L315.226,519.598C315.226,519.082 315.394,518.878 315.946,518.878L316.186,518.878L316.186,518.638L311.746,518.638L311.746,518.878L311.986,518.878C312.538,518.878 312.706,519.082 312.706,519.598L312.706,526.078C312.706,526.594 312.538,526.798 311.986,526.798L311.746,526.798Z" style="fill:rgb(61,93,109);fill-rule:nonzero;"/>
                <path d="M321.814,526.798L321.814,527.038L329.194,527.038L329.194,523.438L328.954,523.438C328.942,524.518 327.742,526.798 326.494,526.798L326.014,526.798C325.462,526.798 325.294,526.594 325.294,526.078L325.294,522.838L325.558,522.838C326.446,522.838 327.262,523.918 327.274,524.398L327.514,524.398L327.514,520.798L327.274,520.798C327.262,521.278 326.446,522.358 325.558,522.358L325.294,522.358L325.294,518.878L326.134,518.878C327.382,518.878 328.582,520.654 328.594,521.734L328.834,521.734L328.834,518.638L321.814,518.638L321.814,518.878L322.054,518.878C322.606,518.878 322.774,519.082 322.774,519.598L322.774,526.078C322.774,526.594 322.606,526.798 322.054,526.798L321.814,526.798Z" style="fill:rgb(61,93,109);fill-rule:nonzero;"/>
                <path d="M339.754,526.798L339.754,527.038L344.194,527.038L344.194,526.798L343.954,526.798C343.402,526.798 343.234,526.594 343.234,526.078L343.234,519.598C343.234,519.082 343.402,518.878 343.954,518.878L344.194,518.878L344.194,518.638L340.858,518.638L339.538,523.75L337.882,518.638L334.594,518.638L334.594,518.878L334.834,518.878C335.17,518.878 335.554,519.274 335.554,519.598L335.554,525.478C335.554,525.802 335.314,526.798 334.594,526.798L334.354,526.798L334.354,527.038L336.994,527.038L336.994,526.798L336.754,526.798C336.034,526.798 335.794,525.562 335.794,525.238L335.794,520.342L337.966,527.038L338.938,527.038L340.714,520.15L340.714,526.078C340.714,526.594 340.546,526.798 339.994,526.798L339.754,526.798Z" style="fill:rgb(61,93,109);fill-rule:nonzero;"/>
                <path d="M345.034,522.838C345.034,525.226 346.858,527.158 349.126,527.158C351.394,527.158 353.23,525.226 353.23,522.838C353.23,520.45 351.394,518.518 349.126,518.518C346.858,518.518 345.034,520.45 345.034,522.838ZM349.126,526.918C347.794,526.918 347.686,525.454 347.686,522.838C347.686,520.222 347.794,518.758 349.126,518.758C350.458,518.758 350.566,520.222 350.566,522.838C350.566,525.454 350.458,526.918 349.126,526.918Z" style="fill:rgb(61,93,109);fill-rule:nonzero;"/>
                <path d="M355.45,520.006L359.086,527.038L360.97,527.038L360.97,520.198C360.97,519.874 361.21,518.878 361.93,518.878L362.17,518.878L362.17,518.638L359.53,518.638L359.53,518.878L359.77,518.878C360.49,518.878 360.73,520.114 360.73,520.438L360.73,524.734L357.598,518.638L354.25,518.638L354.25,518.878L354.49,518.878C355.042,518.878 355.21,519.082 355.21,519.598L355.21,525.478C355.21,525.802 354.97,526.798 354.25,526.798L354.01,526.798L354.01,527.038L356.65,527.038L356.65,526.798L356.41,526.798C355.69,526.798 355.45,525.562 355.45,525.238L355.45,520.006Z" style="fill:rgb(61,93,109);fill-rule:nonzero;"/>
                <path d="M368.986,526.798L368.746,526.798C368.194,526.798 368.026,526.594 368.026,526.078L368.026,518.878L368.446,518.878C369.214,518.878 370.414,521.014 370.426,522.094L370.666,522.094L370.666,518.638L362.866,518.638L362.866,522.094L363.106,522.094C363.118,521.014 364.318,518.878 365.086,518.878L365.506,518.878L365.506,526.078C365.506,526.594 365.338,526.798 364.786,526.798L364.546,526.798L364.546,527.038L368.986,527.038L368.986,526.798Z" style="fill:rgb(61,93,109);fill-rule:nonzero;"/>
                <path d="M371.446,526.798L371.446,527.038L375.886,527.038L375.886,526.798L375.646,526.798C375.094,526.798 374.926,526.594 374.926,526.078L374.926,522.658L377.206,522.658L377.206,526.078C377.206,526.594 377.038,526.798 376.486,526.798L376.246,526.798L376.246,527.038L380.686,527.038L380.686,526.798L380.446,526.798C379.894,526.798 379.726,526.594 379.726,526.078L379.726,519.598C379.726,519.082 379.894,518.878 380.446,518.878L380.686,518.878L380.686,518.638L376.246,518.638L376.246,518.878L376.486,518.878C377.038,518.878 377.206,519.082 377.206,519.598L377.206,522.418L374.926,522.418L374.926,519.598C374.926,519.082 375.094,518.878 375.646,518.878L375.886,518.878L375.886,518.638L371.446,518.638L371.446,518.878L371.686,518.878C372.238,518.878 372.406,519.082 372.406,519.598L372.406,526.078C372.406,526.594 372.238,526.798 371.686,526.798L371.446,526.798Z" style="fill:rgb(61,93,109);fill-rule:nonzero;"/>
            </g>
        </g>
        <g transform="matrix(1.6,0,0,1.2,0,0)">
            <g id="nni-logo" serif:id="nni logo" transform="matrix(0.209891,0,0,0.279855,166.558,365.28)">
                <path d="M318.171,59.333L312.58,59.333L312.58,57.276C311.366,58.869 309.74,59.664 307.703,59.664C306.272,59.664 305.08,59.333 304.127,58.67C303.173,58.005 302.502,57.276 302.112,56.479C301.851,55.905 301.698,55.13 301.657,54.156C301.613,53.536 301.592,52.895 301.592,52.231L301.592,44.531C301.592,42.274 301.959,40.726 302.696,39.883C303.173,39.397 304.256,38.755 305.947,37.958L311.344,35.502C311.647,35.371 312.058,34.887 312.58,34.054L312.58,29.507C312.58,27.663 311.776,26.74 310.174,26.74C308.525,26.74 307.703,27.669 307.703,29.529L307.703,33.179L302.241,33.179L302.241,29.661C302.241,27.271 303.001,25.258 304.518,23.62C306.034,21.982 307.919,21.164 310.174,21.164C312.471,21.164 314.379,21.981 315.896,23.617C317.412,25.251 318.173,27.261 318.173,29.646L318.173,59.333L318.171,59.333ZM312.579,51.899L312.579,39.952C312.579,39.998 312.428,40.182 312.131,40.503C311.959,40.598 311.724,40.758 311.426,40.989L308.739,42.136C307.91,42.535 307.409,43.112 307.242,43.865C307.201,44.041 307.18,44.706 307.18,45.856L307.18,51.565C307.18,52.274 307.413,52.85 307.88,53.293C308.471,53.869 309.233,54.089 310.166,53.957C310.757,53.869 311.392,53.492 312.07,52.828C312.408,52.521 312.579,52.209 312.579,51.899Z" style="fill:rgb(85,200,236);"/>
                <path d="M297.884,61.192C297.884,63.492 297.092,65.341 295.511,66.734C293.927,68.129 291.944,68.826 289.561,68.826L289.561,63.648C290.367,63.648 291.043,63.293 291.595,62.585C292.146,61.878 292.378,61.302 292.293,60.859L292.293,21.363L297.884,21.363L297.884,61.192ZM297.884,17.516L292.293,17.516L292.293,11.872L297.884,11.872L297.884,17.516Z" style="fill:rgb(85,200,236);"/>
                <path d="M285.726,59.333L280.136,59.333L280.136,29.132C280.136,28.424 279.904,27.849 279.437,27.405C278.843,26.831 278.082,26.608 277.151,26.741C276.303,26.873 275.5,27.45 274.738,28.467L274.738,59.333L269.147,59.333L269.147,21.364L274.738,21.364L274.738,23.422C275.987,21.829 277.603,21.033 279.587,21.033C281.008,21.033 282.192,21.364 283.142,22.028C284.09,22.692 284.757,23.434 285.144,24.253C285.532,25.072 285.726,26.476 285.726,28.467L285.726,59.333Z" style="fill:rgb(85,200,236);"/>
                <path d="M265.311,17.516L259.72,17.516L259.72,11.872L265.31,11.872L265.31,17.516L265.311,17.516ZM265.311,59.333L259.72,59.333L259.72,21.364L265.31,21.364L265.31,59.333L265.311,59.333Z" style="fill:rgb(85,200,236);"/>
                <path d="M255.819,20.026L255.819,59.333L250.228,59.333L250.228,19.901C250.228,19.149 249.957,18.497 249.415,17.944C248.872,17.393 248.234,17.116 247.497,17.116C246.717,17.116 246.054,17.393 245.514,17.944C244.971,18.497 244.7,19.149 244.7,19.901L244.7,59.333L239.173,59.333L239.173,20.026C239.173,17.685 239.972,15.684 241.569,14.027C243.166,12.369 245.109,11.539 247.398,11.539C249.729,11.539 251.715,12.369 253.356,14.027C254.999,15.684 255.819,17.683 255.819,20.026Z" style="fill:rgb(85,200,236);"/>
                <g>
                    <path d="M235.469,59.333L229.879,59.333L229.879,45.727C229.879,44.93 229.624,44.265 229.117,43.736C228.611,43.204 227.979,42.939 227.22,42.939L225.067,42.939L225.067,59.335L219.477,59.335L219.477,11.873L225.067,11.873L225.067,37.363L227.156,37.363C227.916,37.363 228.56,37.088 229.089,36.536C229.615,35.987 229.88,35.314 229.88,34.52L229.88,21.167L235.47,21.167L235.47,34.486C235.47,37.093 234.344,38.969 232.09,40.117C233.049,40.516 233.852,41.289 234.5,42.437C235.147,43.586 235.47,44.734 235.47,45.883L235.47,59.333L235.469,59.333Z" style="fill:rgb(178,178,178);"/>
                    <path d="M216.614,27.405C215.972,26.831 215.18,26.608 214.239,26.741C213.383,26.873 212.549,27.45 211.737,28.467L211.737,59.333L206.146,59.333L206.146,21.364L211.737,21.364L211.737,23.422C212.977,21.829 214.603,21.033 216.614,21.033L216.614,27.405Z" style="fill:rgb(178,178,178);"/>
                    <path d="M202.961,51.183C202.961,53.525 202.158,55.524 200.555,57.18C198.952,58.837 197,59.665 194.703,59.665C192.407,59.665 190.423,58.837 188.755,57.18C187.087,55.524 186.252,53.526 186.252,51.183L186.317,29.647C186.317,27.307 187.131,25.307 188.756,23.65C190.382,21.993 192.343,21.164 194.641,21.164C196.939,21.164 198.9,21.993 200.526,23.65C202.151,25.307 202.964,27.306 202.964,29.647L202.964,51.183L202.961,51.183ZM197.434,51.309L197.434,29.522C197.434,28.772 197.164,28.121 196.621,27.569C196.078,27.018 195.439,26.741 194.702,26.741C193.922,26.741 193.261,27.018 192.719,27.569C192.176,28.121 191.905,28.772 191.905,29.522L191.905,51.309C191.905,52.061 192.176,52.711 192.719,53.263C193.261,53.814 193.922,54.091 194.702,54.091C195.439,54.091 196.078,53.814 196.621,53.263C197.162,52.711 197.434,52.061 197.434,51.309Z" style="fill:rgb(178,178,178);"/>
                    <path d="M182.74,51.183C182.74,53.525 181.937,55.524 180.334,57.18C178.731,58.837 176.781,59.665 174.484,59.665C173.356,59.665 172.218,59.356 171.07,58.736C169.921,58.117 169.174,57.365 168.827,56.479C168.48,57.365 167.743,58.117 166.617,58.736C165.489,59.356 164.382,59.665 163.3,59.665C161.003,59.665 159.019,58.837 157.352,57.18C155.683,55.524 154.848,53.526 154.848,51.183L154.848,21.165L160.439,21.165L160.439,51.306C160.439,52.058 160.712,52.711 161.26,53.263C161.81,53.814 162.457,54.091 163.203,54.091C163.991,54.091 164.659,53.814 165.208,53.263C165.756,52.711 166.03,52.058 166.03,51.306L166.03,21.165L171.622,21.165L171.622,51.306C171.622,52.058 171.896,52.711 172.447,53.263C172.998,53.814 173.654,54.091 174.415,54.091C175.177,54.091 175.823,53.814 176.353,53.263C176.882,52.711 177.147,52.058 177.147,51.306L177.147,21.165L182.739,21.165L182.739,51.183L182.74,51.183Z" style="fill:rgb(178,178,178);"/>
                    <path d="M151.791,51.169C151.791,53.557 151.077,55.572 149.647,57.209C148.216,58.847 146.372,59.664 144.12,59.664C141.866,59.664 140.012,58.846 138.562,57.209C137.109,55.573 136.382,53.558 136.382,51.169L136.382,27.006L134.107,27.006L134.107,21.762L136.382,21.762L136.382,16.318L141.973,16.318L141.973,21.762L151.531,21.762L151.531,27.006L141.973,27.006L141.973,51.3C141.973,53.159 142.689,54.089 144.119,54.089C145.506,54.089 146.2,53.159 146.2,51.3L146.2,37.693L151.79,37.693L151.79,51.169L151.791,51.169Z" style="fill:rgb(178,178,178);"/>
                    <path d="M131.442,51.169C131.442,53.514 130.639,55.516 129.036,57.176C127.433,58.835 125.482,59.665 123.185,59.665C120.845,59.665 118.85,58.837 117.204,57.18C115.556,55.524 114.733,53.526 114.733,51.183L114.733,29.647C114.733,27.307 115.549,25.307 117.18,23.65C118.811,21.993 120.781,21.164 123.088,21.164C125.395,21.164 127.363,21.992 128.996,23.648C130.627,25.303 131.443,27.299 131.443,29.638L131.443,45.394L120.325,45.394L120.325,51.302C120.325,52.055 120.595,52.706 121.138,53.26C121.679,53.814 122.319,54.091 123.057,54.091C123.837,54.091 124.498,53.814 125.04,53.26C125.582,52.706 125.854,52.055 125.854,51.302L125.854,49.177L131.444,49.177L131.444,51.169L131.442,51.169ZM125.85,40.083L125.85,29.516C125.85,28.766 125.579,28.118 125.037,27.567C124.494,27.018 123.833,26.741 123.053,26.741C122.315,26.741 121.676,27.018 121.134,27.567C120.593,28.118 120.321,28.766 120.321,29.516L120.321,40.083L125.85,40.083Z" style="fill:rgb(178,178,178);"/>
                    <path d="M111.157,20.026L111.157,59.333L105.565,59.333L105.565,19.901C105.565,19.149 105.295,18.497 104.752,17.944C104.209,17.393 103.57,17.116 102.833,17.116C102.053,17.116 101.391,17.393 100.85,17.944C100.307,18.497 100.036,19.149 100.036,19.901L100.036,59.333L94.51,59.333L94.51,20.026C94.51,17.685 95.308,15.684 96.906,14.027C98.503,12.369 100.447,11.539 102.734,11.539C105.065,11.539 107.051,12.369 108.692,14.027C110.335,15.684 111.157,17.683 111.157,20.026Z" style="fill:rgb(178,178,178);"/>
                </g>
                <ellipse cx="48.468" cy="35" rx="34.283" ry="35" style="fill:rgb(85,200,235);"/>
                <path d="M47.953,67.706L45.011,67.684C24.594,44.817 25.105,28.453 43.626,5.88C13.238,17.269 16.557,51.548 38.938,65.897L39.23,66.028C8.36,58.961 8.634,6.836 46.532,3.854C28.421,31.943 30.907,40.933 45.011,65.746L45.011,35.782L47.953,35.782L47.953,67.706Z" style="fill:rgb(37,64,142);"/>
                <path d="M47.953,3.931L50.895,3.954C71.312,26.821 70.801,43.184 52.28,65.758C82.668,54.367 79.348,20.089 56.969,5.74L56.677,5.608C87.545,12.678 87.273,64.804 49.373,67.785C67.486,39.695 64.998,30.706 50.895,5.892L50.895,35.857L47.953,35.857L47.953,3.931Z" style="fill:white;"/>
                <path d="M12.504,34.636L87.835,34.574L89.541,36.087L12.504,36.01L12.504,34.636Z"/>
                <path d="M2.217,33.943L12.14,33.943C13.092,33.943 13.871,34.568 13.871,35.332C13.871,36.096 13.091,36.719 12.14,36.719L2.217,36.719C1.264,36.719 0.485,36.095 0.485,35.332C0.485,34.568 1.264,33.943 2.217,33.943"/>
                <path d="M11.239,30.866L9.585,30.866C12.998,33.844 12.998,36.819 9.585,39.793L11.239,39.793C14.654,36.819 14.654,33.844 11.239,30.866"/>
                <path d="M69.164,18.211L68.198,16.659C54.882,22.091 41.783,22.17 27.808,16.816L26.776,18.211C41.143,23.716 55.441,23.809 69.164,18.211Z"/>
                <path d="M68.495,54.276L69.526,52.795C55.508,46.857 41.028,46.956 26.352,52.795L27.266,54.276C41.539,48.598 54.897,48.515 68.495,54.276Z"/>
            </g>
        </g>
        <g transform="matrix(1.6,0,0,1.2,0,0)">
            <g id="baseline" transform="matrix(1.03406,0,0,0.833333,-26.5069,0.768496)">
                <path d="M48.486,379.993L389.606,379.993" style="fill:none;stroke:rgb(61,93,109);stroke-width:5.85px;"/>
            </g>
        </g>
    </g>
</svg>
