<?xml version="1.0" encoding="UTF-8" standalone="no"?>
<!DOCTYPE svg PUBLIC "-//W3C//DTD SVG 1.1//EN" "http://www.w3.org/Graphics/SVG/1.1/DTD/svg11.dtd">
<svg width="100%" height="100%" viewBox="0 0 750 1100" version="1.1" xmlns="http://www.w3.org/2000/svg" xmlns:xlink="http://www.w3.org/1999/xlink" xml:space="preserve" xmlns:serif="http://www.serif.com/" style="fill-rule:evenodd;clip-rule:evenodd;stroke-linejoin:round;stroke-miterlimit:1.41421;">
    <g id="vms-ninjas" transform="matrix(1.1603,0,0,1.10687,0,0)">
        <rect x="0" y="0" width="646.383" height="993.794" style="fill:none;"/>
        <g id="nni-logo" serif:id="nni logo" transform="matrix(0.323683,0,0,0.342723,354.514,921.35)">
            <g transform="matrix(2.66262,0,0,2.63609,-1095.25,-2688.32)">
                <path d="M523.037,1043.03C523.037,1043.9 522.74,1044.6 522.146,1045.13C521.551,1045.66 520.806,1045.92 519.911,1045.92L519.911,1043.96C520.214,1043.96 520.468,1043.82 520.675,1043.56C520.882,1043.29 520.969,1043.07 520.937,1042.9L520.937,1027.92L523.037,1027.92L523.037,1043.03ZM526.725,1032.4L524.674,1032.4L524.674,1031.07C524.674,1030.16 524.959,1029.4 525.529,1028.77C526.098,1028.15 526.806,1027.84 527.653,1027.84C528.516,1027.84 529.232,1028.15 529.802,1028.77C530.372,1029.39 530.657,1030.16 530.657,1031.06L530.657,1042.32L528.557,1042.32L528.557,1041.54C528.101,1042.15 527.49,1042.45 526.725,1042.45C526.187,1042.45 525.74,1042.32 525.382,1042.07C525.024,1041.82 524.772,1041.54 524.625,1041.24C524.527,1041.02 524.47,1040.73 524.454,1040.36C524.438,1040.12 524.43,1039.88 524.43,1039.63L524.43,1036.71C524.43,1035.85 524.568,1035.26 524.844,1034.94C525.024,1034.76 525.431,1034.52 526.065,1034.21L528.093,1033.28C528.206,1033.23 528.361,1033.05 528.557,1032.73L528.557,1031.01C528.557,1030.31 528.255,1029.96 527.653,1029.96C527.034,1029.96 526.725,1030.31 526.725,1031.02L526.725,1032.4ZM510.803,1042.32L508.704,1042.32L508.704,1027.92L510.803,1027.92L510.803,1042.32ZM514.344,1042.32L512.245,1042.32L512.245,1027.92L514.344,1027.92L514.344,1028.7C514.814,1028.1 515.42,1027.79 516.165,1027.79C516.699,1027.79 517.144,1027.92 517.501,1028.17C517.857,1028.42 518.107,1028.7 518.253,1029.01C518.398,1029.33 518.471,1029.86 518.471,1030.61L518.471,1042.32L516.371,1042.32L516.371,1030.87C516.371,1030.6 516.284,1030.38 516.109,1030.21C515.886,1029.99 515.6,1029.91 515.25,1029.96C514.932,1030.01 514.631,1030.23 514.344,1030.61L514.344,1042.32ZM503.063,1042.32L500.987,1042.32L500.987,1027.41C500.987,1026.52 501.287,1025.76 501.887,1025.13C502.487,1024.51 503.217,1024.19 504.076,1024.19C504.952,1024.19 505.698,1024.51 506.314,1025.13C506.931,1025.76 507.239,1026.52 507.239,1027.41L507.239,1042.32L505.139,1042.32L505.139,1027.36C505.139,1027.08 505.037,1026.83 504.834,1026.62C504.63,1026.41 504.39,1026.31 504.114,1026.31C503.821,1026.31 503.571,1026.41 503.369,1026.62C503.165,1026.83 503.063,1027.08 503.063,1027.36L503.063,1042.32ZM528.556,1039.5L528.556,1034.97C528.556,1034.99 528.5,1035.06 528.388,1035.18C528.323,1035.21 528.235,1035.28 528.123,1035.36L527.114,1035.8C526.803,1035.95 526.615,1036.17 526.552,1036.45C526.536,1036.52 526.528,1036.77 526.528,1037.21L526.528,1039.38C526.528,1039.64 526.616,1039.86 526.791,1040.03C527.013,1040.25 527.3,1040.33 527.65,1040.28C527.872,1040.25 528.11,1040.11 528.365,1039.86C528.492,1039.74 528.556,1039.62 528.556,1039.5ZM510.803,1026.46L508.704,1026.46L508.704,1024.32L510.803,1024.32L510.803,1026.46ZM523.037,1026.46L520.937,1026.46L520.937,1024.32L523.037,1024.32L523.037,1026.46Z" style="fill:rgb(85,200,236);"/>
            </g>
            <g transform="matrix(2.66262,0,0,2.63609,-1095.25,-2688.32)">
                <path d="M460.526,1039.22C460.526,1040.12 460.225,1040.87 459.623,1041.5C459.021,1042.13 458.288,1042.45 457.426,1042.45C456.547,1042.45 455.798,1042.13 455.179,1041.51C454.56,1040.88 454.251,1040.12 454.251,1039.23L454.251,1031.06C454.251,1030.17 454.558,1029.41 455.17,1028.79C455.783,1028.16 456.523,1027.84 457.389,1027.84C458.255,1027.84 458.995,1028.16 459.608,1028.79C460.221,1029.41 460.527,1030.17 460.527,1031.06L460.527,1037.03L456.351,1037.03L456.351,1039.28C456.351,1039.56 456.453,1039.81 456.657,1040.02C456.86,1040.23 457.1,1040.33 457.377,1040.33C457.67,1040.33 457.918,1040.23 458.122,1040.02C458.326,1039.81 458.428,1039.56 458.428,1039.28L458.428,1038.47L460.527,1038.47L460.527,1039.22L460.526,1039.22ZM487.387,1039.23C487.387,1040.12 487.085,1040.88 486.483,1041.51C485.881,1042.13 485.148,1042.45 484.286,1042.45C483.423,1042.45 482.678,1042.13 482.052,1041.51C481.425,1040.88 481.112,1040.12 481.112,1039.23L481.136,1031.06C481.136,1030.17 481.442,1029.41 482.052,1028.79C482.663,1028.16 483.399,1027.84 484.262,1027.84C485.125,1027.84 485.862,1028.16 486.472,1028.79C487.083,1029.41 487.388,1030.17 487.388,1031.06L487.388,1039.23L487.387,1039.23ZM479.793,1039.23C479.793,1040.12 479.491,1040.88 478.889,1041.51C478.287,1042.13 477.555,1042.45 476.692,1042.45C476.268,1042.45 475.841,1042.33 475.41,1042.1C474.978,1041.86 474.698,1041.58 474.567,1041.24C474.437,1041.58 474.16,1041.86 473.737,1042.1C473.314,1042.33 472.898,1042.45 472.491,1042.45C471.629,1042.45 470.884,1042.13 470.258,1041.51C469.631,1040.88 469.317,1040.12 469.317,1039.23L469.317,1027.84L471.417,1027.84L471.417,1039.28C471.417,1039.56 471.519,1039.81 471.725,1040.02C471.932,1040.23 472.175,1040.33 472.455,1040.33C472.751,1040.33 473.002,1040.23 473.208,1040.02C473.414,1039.81 473.517,1039.56 473.517,1039.28L473.517,1027.84L475.617,1027.84L475.617,1039.28C475.617,1039.56 475.72,1039.81 475.927,1040.02C476.134,1040.23 476.38,1040.33 476.666,1040.33C476.952,1040.33 477.195,1040.23 477.394,1040.02C477.593,1039.81 477.692,1039.56 477.692,1039.28L477.692,1027.84L479.792,1027.84L479.792,1039.23L479.793,1039.23ZM464.482,1028.07L468.072,1028.07L468.072,1030.06L464.482,1030.06L464.482,1039.28C464.482,1039.98 464.75,1040.33 465.288,1040.33C465.809,1040.33 466.069,1039.98 466.069,1039.28L466.069,1034.11L468.169,1034.11L468.169,1039.22L468.169,1039.22C468.169,1040.13 467.901,1040.89 467.364,1041.52C466.827,1042.14 466.134,1042.45 465.288,1042.45C464.441,1042.45 463.745,1042.14 463.201,1041.52C462.655,1040.9 462.382,1040.13 462.382,1039.22L462.382,1030.06L461.528,1030.06L461.528,1028.07L462.382,1028.07L462.382,1026.01L464.482,1026.01L464.482,1028.07ZM495.689,1042.32L493.59,1042.32L493.59,1024.32L495.689,1024.32L495.689,1033.99L496.474,1033.99C496.759,1033.99 497.001,1033.88 497.2,1033.67C497.397,1033.47 497.497,1033.21 497.497,1032.91L497.497,1027.84L499.596,1027.84L499.596,1032.9C499.596,1033.88 499.173,1034.6 498.327,1035.03C498.687,1035.18 498.989,1035.48 499.232,1035.91C499.475,1036.35 499.596,1036.78 499.596,1037.22L499.596,1042.32L497.496,1042.32L497.496,1037.16C497.496,1036.86 497.401,1036.61 497.21,1036.4C497.021,1036.2 496.783,1036.1 496.498,1036.1L495.689,1036.1L495.689,1042.32ZM490.683,1042.32L488.583,1042.32L488.583,1027.92L490.683,1027.92L490.683,1028.7C491.149,1028.1 491.759,1027.79 492.515,1027.79L492.515,1030.21C492.273,1029.99 491.976,1029.91 491.623,1029.96C491.301,1030.01 490.988,1030.23 490.683,1030.61L490.683,1042.32ZM448.732,1042.32L446.656,1042.32L446.656,1027.41C446.656,1026.52 446.956,1025.76 447.556,1025.13C448.156,1024.51 448.886,1024.19 449.745,1024.19C450.62,1024.19 451.366,1024.51 451.982,1025.13C452.6,1025.76 452.908,1026.52 452.908,1027.41L452.908,1042.32L450.808,1042.32L450.808,1027.36C450.808,1027.08 450.706,1026.83 450.503,1026.62C450.299,1026.41 450.059,1026.31 449.782,1026.31C449.489,1026.31 449.24,1026.41 449.037,1026.62C448.833,1026.83 448.732,1027.08 448.732,1027.36L448.732,1042.32ZM485.311,1039.28L485.311,1031.01C485.311,1030.73 485.21,1030.48 485.006,1030.27C484.802,1030.06 484.562,1029.96 484.285,1029.96C483.992,1029.96 483.744,1030.06 483.54,1030.27C483.336,1030.48 483.235,1030.73 483.235,1031.01L483.235,1039.28C483.235,1039.56 483.336,1039.81 483.54,1040.02C483.744,1040.23 483.992,1040.33 484.285,1040.33C484.562,1040.33 484.802,1040.23 485.006,1040.02C485.209,1039.81 485.311,1039.56 485.311,1039.28ZM458.426,1035.02L458.426,1031.01C458.426,1030.73 458.325,1030.48 458.121,1030.27C457.917,1030.06 457.669,1029.96 457.376,1029.96C457.099,1029.96 456.859,1030.06 456.655,1030.27C456.452,1030.48 456.35,1030.73 456.35,1031.01L456.35,1035.02L458.426,1035.02Z" style="fill:rgb(178,178,178);"/>
            </g>
            <path d="M47.984,70C66.917,70 82.266,54.33 82.266,35C82.266,15.67 66.917,0 47.984,0C29.05,0 13.701,15.67 13.701,35C13.701,54.33 29.05,70 47.984,70Z" style="fill:rgb(85,200,235);"/>
            <path d="M47.468,67.706L44.526,67.684C24.109,44.817 24.621,28.453 43.142,5.88C12.753,17.269 16.073,51.548 38.453,65.897L38.745,66.028C7.876,58.961 8.15,6.836 46.047,3.854C27.937,31.943 30.423,40.933 44.526,65.746L44.526,35.782L47.468,35.782L47.468,67.706Z" style="fill:rgb(37,64,142);"/>
            <path d="M47.468,3.931L50.411,3.954C70.828,26.821 70.316,43.184 51.795,65.758C82.183,54.367 78.863,20.089 56.485,5.74L56.193,5.608C87.06,12.678 86.788,64.804 48.888,67.785C67.001,39.695 64.514,30.706 50.411,5.892L50.411,35.857L47.468,35.857L47.468,3.931Z" style="fill:white;"/>
            <g transform="matrix(2.66262,0,0,2.63609,-1095.25,-2688.32)">
                <path d="M436.885,1040.4L437.273,1039.84C432.008,1037.59 426.57,1037.63 421.058,1039.84L421.401,1040.4C426.762,1038.25 431.779,1038.22 436.885,1040.4ZM415.382,1031.52C415.923,1032 416.236,1032.48 416.32,1032.95L444.149,1032.93L444.79,1033.5L416.321,1033.47C416.239,1033.95 415.925,1034.43 415.382,1034.91L414.761,1034.91C415.202,1034.52 415.492,1034.13 415.629,1033.74L411.993,1033.74C411.636,1033.74 411.343,1033.51 411.343,1033.22C411.343,1032.93 411.636,1032.69 411.993,1032.69L415.629,1032.69C415.492,1032.3 415.202,1031.91 414.761,1031.52L415.382,1031.52ZM437.137,1026.72L436.774,1026.13C431.773,1028.19 426.853,1028.22 421.605,1026.19L421.217,1026.72C426.613,1028.81 431.983,1028.85 437.137,1026.72Z"/>
            </g>
        </g>
        <g id="presented-by" serif:id="presented by" transform="matrix(0.861845,0,0,0.903449,7.83843e-13,1.0271e-13)">
            <path d="M268.17,1042.54L267.337,1042.54L267.191,1037.47L268.035,1037.47C268.208,1038.1 268.411,1038.66 268.644,1039.17C268.877,1039.67 269.184,1040.14 269.566,1040.58C269.927,1040.99 270.349,1041.31 270.831,1041.56C271.314,1041.8 271.875,1041.92 272.514,1041.92C272.993,1041.92 273.411,1041.86 273.769,1041.73C274.127,1041.61 274.417,1041.43 274.639,1041.2C274.861,1040.97 275.026,1040.7 275.134,1040.39C275.241,1040.09 275.295,1039.73 275.295,1039.33C275.295,1038.74 275.128,1038.19 274.795,1037.68C274.462,1037.17 273.965,1036.78 273.305,1036.52C272.854,1036.34 272.337,1036.13 271.753,1035.92C271.17,1035.7 270.667,1035.49 270.243,1035.3C269.41,1034.92 268.762,1034.43 268.3,1033.82C267.838,1033.21 267.608,1032.42 267.608,1031.44C267.608,1030.88 267.722,1030.36 267.951,1029.87C268.18,1029.38 268.507,1028.95 268.93,1028.57C269.333,1028.21 269.809,1027.92 270.358,1027.72C270.906,1027.51 271.479,1027.41 272.076,1027.41C272.757,1027.41 273.366,1027.52 273.904,1027.72C274.443,1027.93 274.934,1028.17 275.378,1028.45L275.805,1027.74L276.639,1027.74L276.722,1032.65L275.878,1032.65C275.726,1032.09 275.554,1031.55 275.363,1031.04C275.172,1030.52 274.924,1030.06 274.618,1029.64C274.319,1029.24 273.955,1028.92 273.524,1028.68C273.094,1028.44 272.566,1028.32 271.941,1028.32C271.281,1028.32 270.719,1028.53 270.253,1028.95C269.788,1029.38 269.555,1029.89 269.555,1030.51C269.555,1031.14 269.705,1031.67 270.003,1032.09C270.302,1032.51 270.736,1032.86 271.305,1033.13C271.812,1033.37 272.311,1033.58 272.8,1033.76C273.29,1033.94 273.764,1034.13 274.222,1034.33C274.639,1034.51 275.04,1034.71 275.425,1034.94C275.811,1035.17 276.146,1035.44 276.43,1035.74C276.743,1036.09 276.974,1036.47 277.123,1036.88C277.272,1037.3 277.347,1037.78 277.347,1038.33C277.347,1039.63 276.864,1040.71 275.899,1041.56C274.934,1042.4 273.736,1042.83 272.305,1042.83C271.646,1042.83 270.986,1042.72 270.326,1042.52C269.667,1042.32 269.097,1042.07 268.618,1041.78L268.17,1042.54ZM302.947,1042.53L296.885,1042.53L296.885,1041.79C297.072,1041.77 297.388,1041.7 297.833,1041.58C298.277,1041.46 298.555,1041.35 298.666,1041.26C298.909,1041.06 299.076,1040.76 299.166,1040.36C299.256,1039.96 299.301,1039.28 299.301,1038.32L299.301,1031.04C299.301,1030.72 299.246,1030.4 299.135,1030.08C299.024,1029.76 298.874,1029.51 298.687,1029.34C298.437,1029.11 298.098,1028.91 297.671,1028.75C297.244,1028.59 296.899,1028.5 296.635,1028.48L296.635,1027.74L300.853,1027.74L309.166,1039.02L309.166,1031.98C309.166,1031.12 309.11,1030.46 308.999,1030C308.888,1029.54 308.728,1029.23 308.52,1029.08C308.326,1028.95 308.008,1028.82 307.567,1028.69C307.126,1028.57 306.791,1028.5 306.562,1028.48L306.562,1027.74L312.572,1027.74L312.572,1028.48C312.378,1028.49 312.079,1028.55 311.676,1028.65C311.274,1028.76 310.985,1028.86 310.812,1028.97C310.562,1029.15 310.393,1029.48 310.306,1029.97C310.22,1030.47 310.176,1031.09 310.176,1031.85L310.176,1042.67L309.27,1042.67L300.312,1030.58L300.312,1038.2C300.312,1039.06 300.366,1039.71 300.473,1040.17C300.581,1040.63 300.746,1040.96 300.968,1041.15C301.128,1041.3 301.458,1041.45 301.958,1041.58C302.458,1041.71 302.787,1041.78 302.947,1041.79L302.947,1042.53ZM225.26,1042.53L218.916,1042.53L218.916,1041.79C219.083,1041.77 219.324,1041.75 219.64,1041.71C219.956,1041.68 220.176,1041.63 220.301,1041.58C220.51,1041.49 220.661,1041.36 220.754,1041.18C220.848,1041.01 220.895,1040.79 220.895,1040.52L220.895,1029.85C220.895,1029.61 220.86,1029.39 220.791,1029.19C220.721,1029 220.558,1028.85 220.301,1028.76C220.037,1028.66 219.775,1028.6 219.515,1028.56C219.254,1028.52 219.03,1028.5 218.843,1028.48L218.843,1027.74L225.593,1027.74C226.968,1027.74 228.084,1028.08 228.942,1028.74C229.8,1029.4 230.228,1030.29 230.228,1031.39C230.228,1032.16 230.077,1032.84 229.775,1033.44C229.473,1034.03 229.055,1034.52 228.52,1034.91C227.992,1035.3 227.412,1035.59 226.78,1035.77C226.149,1035.95 225.478,1036.04 224.77,1036.04L223.114,1036.04L223.114,1040.52C223.114,1040.76 223.154,1040.97 223.234,1041.16C223.313,1041.34 223.478,1041.48 223.728,1041.58C223.853,1041.63 224.074,1041.67 224.39,1041.71C224.706,1041.76 224.996,1041.78 225.26,1041.79L225.26,1042.53ZM240.31,1042.53L234.06,1042.53L234.06,1041.79C234.226,1041.77 234.468,1041.75 234.784,1041.71C235.1,1041.68 235.32,1041.63 235.445,1041.58C235.653,1041.49 235.804,1041.36 235.898,1041.18C235.992,1041.01 236.039,1040.79 236.039,1040.52L236.039,1029.83C236.039,1029.59 236.004,1029.37 235.935,1029.18C235.865,1028.99 235.702,1028.85 235.445,1028.76C235.271,1028.69 235.046,1028.63 234.768,1028.58C234.49,1028.53 234.254,1028.5 234.06,1028.48L234.06,1027.74L240.883,1027.74C241.508,1027.74 242.094,1027.81 242.643,1027.94C243.192,1028.07 243.688,1028.27 244.133,1028.56C244.563,1028.84 244.907,1029.2 245.164,1029.64C245.421,1030.09 245.549,1030.63 245.549,1031.27C245.549,1031.84 245.462,1032.34 245.289,1032.78C245.115,1033.21 244.858,1033.59 244.518,1033.91C244.205,1034.21 243.83,1034.47 243.393,1034.69C242.955,1034.91 242.473,1035.09 241.945,1035.24C242.674,1036.21 243.28,1037.02 243.763,1037.68C244.245,1038.34 244.837,1039.14 245.539,1040.09C245.844,1040.51 246.12,1040.81 246.367,1041.01C246.613,1041.21 246.858,1041.37 247.101,1041.49C247.282,1041.59 247.508,1041.65 247.778,1041.7C248.049,1041.75 248.275,1041.78 248.455,1041.79L248.455,1042.53L244.476,1042.53C243.594,1041.14 242.797,1039.95 242.086,1038.94C241.374,1037.93 240.601,1036.9 239.768,1035.83L238.258,1035.83L238.258,1040.52C238.258,1040.76 238.296,1040.97 238.372,1041.16C238.449,1041.34 238.612,1041.48 238.862,1041.58C238.987,1041.63 239.205,1041.67 239.518,1041.71C239.83,1041.76 240.094,1041.78 240.31,1041.79L240.31,1042.53ZM379.666,1042.53L372.666,1042.53L372.666,1041.79C372.833,1041.77 373.076,1041.74 373.395,1041.7C373.714,1041.65 373.944,1041.6 374.083,1041.54C374.298,1041.44 374.451,1041.31 374.541,1041.14C374.631,1040.98 374.676,1040.77 374.676,1040.52L374.676,1029.89C374.676,1029.65 374.636,1029.45 374.556,1029.27C374.477,1029.09 374.319,1028.94 374.083,1028.83C373.874,1028.72 373.642,1028.64 373.385,1028.59C373.128,1028.53 372.912,1028.5 372.739,1028.48L372.739,1027.74L379.562,1027.74C380.089,1027.74 380.595,1027.8 381.077,1027.9C381.56,1028.01 382.02,1028.19 382.458,1028.45C382.867,1028.7 383.204,1029.03 383.468,1029.44C383.732,1029.86 383.864,1030.37 383.864,1030.96C383.864,1031.48 383.77,1031.95 383.583,1032.35C383.395,1032.76 383.131,1033.11 382.791,1033.4C382.471,1033.68 382.105,1033.91 381.692,1034.1C381.279,1034.3 380.833,1034.44 380.353,1034.55L380.353,1034.64C380.777,1034.69 381.251,1034.8 381.775,1034.96C382.3,1035.12 382.767,1035.35 383.176,1035.64C383.607,1035.93 383.964,1036.31 384.249,1036.79C384.534,1037.26 384.676,1037.83 384.676,1038.51C384.676,1039.19 384.527,1039.79 384.228,1040.3C383.93,1040.8 383.541,1041.22 383.062,1041.55C382.596,1041.87 382.07,1042.11 381.484,1042.28C380.897,1042.44 380.291,1042.53 379.666,1042.53ZM262.474,1031.31L261.693,1031.31C261.554,1030.78 261.254,1030.22 260.792,1029.62C260.33,1029.03 259.891,1028.71 259.474,1028.65C259.259,1028.62 259.002,1028.6 258.703,1028.59C258.405,1028.57 258.065,1028.57 257.683,1028.57L255.36,1028.57L255.36,1034.44L257.026,1034.44C257.561,1034.44 257.952,1034.39 258.198,1034.29C258.445,1034.19 258.662,1034.02 258.849,1033.79C259.002,1033.59 259.132,1033.32 259.24,1032.98C259.347,1032.64 259.419,1032.32 259.453,1032.03L260.235,1032.03L260.235,1037.81L259.453,1037.81C259.426,1037.47 259.351,1037.12 259.229,1036.75C259.108,1036.38 258.981,1036.11 258.849,1035.94C258.634,1035.67 258.389,1035.49 258.115,1035.41C257.841,1035.33 257.478,1035.29 257.026,1035.29L255.36,1035.29L255.36,1039.72C255.36,1040.17 255.391,1040.52 255.453,1040.78C255.516,1041.03 255.637,1041.23 255.818,1041.36C255.999,1041.49 256.245,1041.58 256.558,1041.61C256.87,1041.65 257.314,1041.67 257.891,1041.67C258.12,1041.67 258.422,1041.67 258.797,1041.67C259.172,1041.67 259.488,1041.66 259.745,1041.63C260.009,1041.6 260.281,1041.55 260.563,1041.48C260.844,1041.41 261.044,1041.31 261.162,1041.18C261.481,1040.85 261.816,1040.34 262.167,1039.67C262.518,1038.99 262.742,1038.49 262.839,1038.17L263.589,1038.17L263.308,1042.53L251.037,1042.53L251.037,1041.79C251.245,1041.77 251.523,1041.74 251.87,1041.7C252.217,1041.65 252.443,1041.61 252.547,1041.56C252.769,1041.45 252.924,1041.32 253.011,1041.15C253.097,1040.98 253.141,1040.77 253.141,1040.52L253.141,1029.89C253.141,1029.66 253.103,1029.46 253.026,1029.28C252.95,1029.1 252.79,1028.96 252.547,1028.85C252.36,1028.76 252.108,1028.68 251.792,1028.61C251.476,1028.54 251.224,1028.5 251.037,1028.48L251.037,1027.74L262.474,1027.74L262.474,1031.31ZM353.389,1042.53L347.264,1042.53L347.264,1041.79C347.465,1041.79 347.727,1041.77 348.05,1041.73C348.373,1041.69 348.587,1041.65 348.691,1041.6C348.899,1041.51 349.05,1041.37 349.144,1041.2C349.238,1041.02 349.285,1040.81 349.285,1040.56L349.285,1029.89C349.285,1029.65 349.245,1029.44 349.165,1029.26C349.085,1029.07 348.927,1028.92 348.691,1028.81C348.476,1028.7 348.243,1028.63 347.993,1028.58C347.743,1028.53 347.528,1028.5 347.347,1028.48L347.347,1027.74L353.805,1027.74C354.694,1027.74 355.569,1027.88 356.43,1028.16C357.292,1028.43 358.042,1028.8 358.68,1029.27C359.549,1029.88 360.229,1030.69 360.722,1031.69C361.215,1032.69 361.462,1033.87 361.462,1035.22C361.462,1036.48 361.226,1037.57 360.753,1038.49C360.281,1039.42 359.667,1040.17 358.91,1040.77C358.146,1041.36 357.288,1041.8 356.337,1042.09C355.385,1042.38 354.403,1042.53 353.389,1042.53ZM397.716,1042.53L390.799,1042.53L390.799,1041.79C390.994,1041.77 391.285,1041.75 391.674,1041.71C392.063,1041.67 392.334,1041.62 392.487,1041.56C392.737,1041.45 392.909,1041.31 393.002,1041.13C393.096,1040.95 393.143,1040.73 393.143,1040.46L393.143,1036.87C393.143,1036.76 393.075,1036.56 392.94,1036.26C392.804,1035.96 392.643,1035.64 392.455,1035.28C392.039,1034.47 391.577,1033.6 391.07,1032.66C390.563,1031.72 390.122,1030.92 389.747,1030.26C389.518,1029.86 389.315,1029.56 389.138,1029.36C388.961,1029.16 388.758,1028.98 388.528,1028.83C388.362,1028.72 388.162,1028.64 387.929,1028.59C387.697,1028.53 387.487,1028.5 387.299,1028.48L387.299,1027.74L393.601,1027.74L393.601,1028.48C392.893,1028.5 392.393,1028.55 392.101,1028.63C391.81,1028.71 391.664,1028.83 391.664,1028.98C391.664,1029.03 391.685,1029.1 391.726,1029.2C391.768,1029.31 391.827,1029.44 391.903,1029.6C391.994,1029.78 392.101,1029.99 392.226,1030.22C392.351,1030.45 392.469,1030.67 392.58,1030.89C392.907,1031.51 393.24,1032.12 393.58,1032.74C393.921,1033.35 394.365,1034.15 394.914,1035.14C396.004,1033.38 396.836,1032.01 397.409,1031.03C397.981,1030.05 398.268,1029.46 398.268,1029.27C398.268,1029.11 398.209,1028.98 398.091,1028.88C397.973,1028.78 397.817,1028.71 397.622,1028.65C397.421,1028.6 397.202,1028.56 396.966,1028.54C396.73,1028.52 396.511,1028.51 396.31,1028.48L396.31,1027.74L401.445,1027.74L401.445,1028.48C401.327,1028.49 401.139,1028.54 400.883,1028.62C400.626,1028.71 400.442,1028.8 400.33,1028.88C400.06,1029.05 399.876,1029.17 399.778,1029.27C399.681,1029.36 399.494,1029.59 399.216,1029.97C398.674,1030.74 398.174,1031.51 397.716,1032.3C397.258,1033.08 396.685,1034.08 395.997,1035.29C395.74,1035.73 395.57,1036.09 395.487,1036.36C395.403,1036.63 395.362,1037.02 395.362,1037.54L395.362,1040.36C395.362,1040.61 395.412,1040.83 395.513,1041.01C395.613,1041.19 395.785,1041.34 396.028,1041.45C396.174,1041.51 396.435,1041.58 396.81,1041.66C397.185,1041.74 397.487,1041.78 397.716,1041.79L397.716,1042.53ZM327.914,1031.76L327.195,1031.76C327.133,1031.51 327.02,1031.21 326.856,1030.86C326.693,1030.52 326.511,1030.2 326.31,1029.89C326.101,1029.57 325.874,1029.29 325.627,1029.05C325.381,1028.81 325.143,1028.67 324.914,1028.64C324.699,1028.61 324.428,1028.59 324.101,1028.58C323.775,1028.56 323.473,1028.56 323.195,1028.56L322.591,1028.56L322.591,1040.38C322.591,1040.61 322.639,1040.82 322.737,1041.01C322.834,1041.2 323.004,1041.35 323.247,1041.45C323.372,1041.5 323.634,1041.57 324.034,1041.65C324.433,1041.73 324.744,1041.78 324.966,1041.79L324.966,1042.53L317.987,1042.53L317.987,1041.79C318.181,1041.77 318.478,1041.74 318.877,1041.7C319.277,1041.66 319.553,1041.61 319.705,1041.55C319.935,1041.46 320.103,1041.33 320.211,1041.16C320.318,1040.99 320.372,1040.76 320.372,1040.47L320.372,1028.56L319.768,1028.56C319.553,1028.56 319.285,1028.56 318.966,1028.57C318.646,1028.58 318.341,1028.61 318.049,1028.64C317.82,1028.67 317.582,1028.81 317.336,1029.05C317.089,1029.3 316.862,1029.58 316.653,1029.89C316.445,1030.2 316.261,1030.53 316.101,1030.88C315.942,1031.24 315.83,1031.53 315.768,1031.76L315.039,1031.76L315.039,1027.74L327.914,1027.74L327.914,1031.76ZM342.547,1031.31L341.766,1031.31C341.627,1030.78 341.327,1030.22 340.865,1029.62C340.403,1029.03 339.964,1028.71 339.547,1028.65C339.332,1028.62 339.075,1028.6 338.776,1028.59C338.478,1028.57 338.137,1028.57 337.755,1028.57L335.433,1028.57L335.433,1034.44L337.099,1034.44C337.634,1034.44 338.025,1034.39 338.271,1034.29C338.518,1034.19 338.735,1034.02 338.922,1033.79C339.075,1033.59 339.205,1033.32 339.313,1032.98C339.42,1032.64 339.492,1032.32 339.526,1032.03L340.308,1032.03L340.308,1037.81L339.526,1037.81C339.499,1037.47 339.424,1037.12 339.302,1036.75C339.181,1036.38 339.054,1036.11 338.922,1035.94C338.707,1035.67 338.462,1035.49 338.188,1035.41C337.913,1035.33 337.551,1035.29 337.099,1035.29L335.433,1035.29L335.433,1039.72C335.433,1040.17 335.464,1040.52 335.526,1040.78C335.589,1041.03 335.71,1041.23 335.891,1041.36C336.071,1041.49 336.318,1041.58 336.63,1041.61C336.943,1041.65 337.387,1041.67 337.964,1041.67C338.193,1041.67 338.495,1041.67 338.87,1041.67C339.245,1041.67 339.561,1041.66 339.818,1041.63C340.082,1041.6 340.354,1041.55 340.636,1041.48C340.917,1041.41 341.117,1041.31 341.235,1041.18C341.554,1040.85 341.889,1040.34 342.24,1039.67C342.591,1038.99 342.814,1038.49 342.912,1038.17L343.662,1038.17L343.38,1042.53L331.11,1042.53L331.11,1041.79C331.318,1041.77 331.596,1041.74 331.943,1041.7C332.29,1041.65 332.516,1041.61 332.62,1041.56C332.842,1041.45 332.997,1041.32 333.084,1041.15C333.17,1040.98 333.214,1040.77 333.214,1040.52L333.214,1029.89C333.214,1029.66 333.176,1029.46 333.099,1029.28C333.023,1029.1 332.863,1028.96 332.62,1028.85C332.433,1028.76 332.181,1028.68 331.865,1028.61C331.549,1028.54 331.297,1028.5 331.11,1028.48L331.11,1027.74L342.547,1027.74L342.547,1031.31ZM292.647,1031.31L291.866,1031.31C291.727,1030.78 291.427,1030.22 290.965,1029.62C290.503,1029.03 290.064,1028.71 289.647,1028.65C289.432,1028.62 289.175,1028.6 288.876,1028.59C288.578,1028.57 288.237,1028.57 287.855,1028.57L285.533,1028.57L285.533,1034.44L287.199,1034.44C287.734,1034.44 288.125,1034.39 288.371,1034.29C288.618,1034.19 288.835,1034.02 289.022,1033.79C289.175,1033.59 289.305,1033.32 289.413,1032.98C289.52,1032.64 289.592,1032.32 289.626,1032.03L290.408,1032.03L290.408,1037.81L289.626,1037.81C289.599,1037.47 289.524,1037.12 289.402,1036.75C289.281,1036.38 289.154,1036.11 289.022,1035.94C288.807,1035.67 288.562,1035.49 288.288,1035.41C288.013,1035.33 287.651,1035.29 287.199,1035.29L285.533,1035.29L285.533,1039.72C285.533,1040.17 285.564,1040.52 285.626,1040.78C285.689,1041.03 285.81,1041.23 285.991,1041.36C286.171,1041.49 286.418,1041.58 286.73,1041.61C287.043,1041.65 287.487,1041.67 288.064,1041.67C288.293,1041.67 288.595,1041.67 288.97,1041.67C289.345,1041.67 289.661,1041.66 289.918,1041.63C290.182,1041.6 290.454,1041.55 290.736,1041.48C291.017,1041.41 291.217,1041.31 291.335,1041.18C291.654,1040.85 291.989,1040.34 292.34,1039.67C292.691,1038.99 292.914,1038.49 293.012,1038.17L293.762,1038.17L293.48,1042.53L281.21,1042.53L281.21,1041.79C281.418,1041.77 281.696,1041.74 282.043,1041.7C282.39,1041.65 282.616,1041.61 282.72,1041.56C282.942,1041.45 283.097,1041.32 283.184,1041.15C283.27,1040.98 283.314,1040.77 283.314,1040.52L283.314,1029.89C283.314,1029.66 283.276,1029.46 283.199,1029.28C283.123,1029.1 282.963,1028.96 282.72,1028.85C282.533,1028.76 282.281,1028.68 281.965,1028.61C281.649,1028.54 281.397,1028.5 281.21,1028.48L281.21,1027.74L292.647,1027.74L292.647,1031.31ZM382.103,1038.13C382.103,1037.26 381.81,1036.54 381.223,1035.97C380.636,1035.41 379.798,1035.13 378.708,1035.13C378.263,1035.13 377.888,1035.13 377.583,1035.14C377.277,1035.16 377.048,1035.16 376.895,1035.17L376.895,1040.38C376.895,1040.82 377.072,1041.15 377.426,1041.37C377.78,1041.59 378.274,1041.7 378.905,1041.7C379.94,1041.7 380.732,1041.4 381.28,1040.8C381.829,1040.19 382.103,1039.3 382.103,1038.13ZM358.91,1035.21C358.91,1034.22 358.778,1033.32 358.514,1032.52C358.25,1031.72 357.864,1031.02 357.358,1030.42C356.878,1029.85 356.29,1029.4 355.592,1029.08C354.894,1028.75 354.118,1028.59 353.264,1028.59C352.979,1028.59 352.658,1028.59 352.3,1028.6C351.943,1028.61 351.677,1028.62 351.503,1028.63L351.503,1039.99C351.503,1040.63 351.687,1041.06 352.055,1041.31C352.424,1041.55 352.989,1041.67 353.753,1041.67C354.635,1041.67 355.406,1041.52 356.066,1041.2C356.726,1040.89 357.26,1040.46 357.67,1039.9C358.101,1039.32 358.415,1038.64 358.613,1037.87C358.811,1037.11 358.91,1036.22 358.91,1035.21ZM224.583,1028.6L223.114,1028.6L223.114,1035.13L224.176,1035.13C224.926,1035.13 225.536,1035.01 226.004,1034.78C226.473,1034.55 226.826,1034.26 227.062,1033.91C227.298,1033.58 227.454,1033.23 227.53,1032.87C227.607,1032.52 227.645,1032.2 227.645,1031.91C227.645,1031.52 227.598,1031.11 227.504,1030.7C227.411,1030.29 227.249,1029.93 227.02,1029.63C226.777,1029.3 226.458,1029.05 226.062,1028.87C225.666,1028.69 225.173,1028.6 224.583,1028.6ZM240.028,1028.59L238.258,1028.59L238.258,1034.93L239.622,1034.93C240.58,1034.93 241.379,1034.62 242.018,1034.01C242.657,1033.39 242.976,1032.56 242.976,1031.51C242.976,1030.61 242.719,1029.9 242.205,1029.37C241.692,1028.85 240.966,1028.59 240.028,1028.59ZM380.666,1033.41C380.923,1033.11 381.102,1032.79 381.202,1032.43C381.303,1032.08 381.353,1031.66 381.353,1031.17C381.353,1030.36 381.131,1029.72 380.687,1029.26C380.242,1028.8 379.541,1028.57 378.583,1028.57C378.36,1028.57 378.081,1028.57 377.744,1028.58C377.407,1028.59 377.124,1028.6 376.895,1028.61L376.895,1034.29L378.218,1034.29C378.787,1034.29 379.275,1034.21 379.681,1034.07C380.088,1033.92 380.416,1033.7 380.666,1033.41Z" style="fill:rgb(28,19,76);fill-rule:nonzero;"/>
        </g>
        <g id="ninja-of-the-month" serif:id="ninja of the month" transform="matrix(0.861845,0,0,0.903449,7.83843e-13,1.0271e-13)">
            <path d="M295.955,864.17C300.443,868.849 303.952,874.494 306.483,881.107C309.013,887.719 310.278,895.036 310.278,903.057C310.278,911.125 308.989,918.454 306.411,925.042C303.833,931.631 300.252,937.241 295.669,941.872C291.229,946.455 286.073,949.988 280.2,952.471C274.328,954.953 268.073,956.195 261.437,956.195C254.371,956.195 247.842,954.87 241.851,952.22C235.859,949.57 230.715,945.882 226.418,941.156C222.121,936.524 218.743,930.903 216.284,924.29C213.825,917.678 212.596,910.6 212.596,903.057C212.596,894.797 213.885,887.433 216.463,880.963C219.041,874.494 222.598,868.896 227.134,864.17C231.622,859.491 236.838,855.91 242.782,853.428C248.726,850.945 254.944,849.704 261.437,849.704C268.169,849.704 274.519,850.969 280.487,853.499C286.455,856.03 291.611,859.586 295.955,864.17ZM383.125,953.76L341.445,953.76L341.445,948.675C342.734,948.58 344.906,948.114 347.962,947.279C351.017,946.443 352.927,945.691 353.691,945.023C355.362,943.686 356.508,941.645 357.129,938.9C357.749,936.154 358.06,931.464 358.06,924.827L358.06,874.769C358.06,872.573 357.678,870.376 356.914,868.18C356.15,865.984 355.123,864.289 353.834,863.096C352.116,861.52 349.788,860.171 346.852,859.049C343.916,857.927 341.54,857.319 339.726,857.223L339.726,852.139L368.73,852.139L425.879,929.626L425.879,881.286C425.879,875.366 425.497,870.818 424.733,867.643C423.969,864.468 422.871,862.356 421.438,861.305C420.102,860.398 417.917,859.515 414.886,858.656C411.854,857.796 409.55,857.319 407.975,857.223L407.975,852.139L449.297,852.139L449.297,857.223C447.96,857.271 445.907,857.653 443.138,858.369C440.369,859.085 438.387,859.825 437.194,860.589C435.475,861.783 434.317,864.074 433.72,867.464C433.124,870.854 432.825,875.151 432.825,880.355L432.825,954.762L426.595,954.762L365.006,871.618L365.006,924.04C365.006,929.912 365.376,934.424 366.116,937.575C366.856,940.726 367.99,942.97 369.518,944.307C370.616,945.357 372.884,946.336 376.321,947.243C379.759,948.15 382.027,948.627 383.125,948.675L383.125,953.76ZM93.343,953.76L52.308,953.76L52.308,948.675C54.457,948.484 56.713,948.126 59.076,947.601C61.439,947.076 63.265,946.288 64.554,945.238C66.225,943.901 67.371,941.848 67.992,939.079C68.613,936.31 68.923,931.679 68.923,925.185L68.923,873.193C68.923,870.185 68.565,867.727 67.849,865.817C67.132,863.907 66.106,862.356 64.769,861.162C63.289,859.873 61.475,858.918 59.326,858.297C57.178,857.677 55.053,857.319 52.953,857.223L52.953,852.139L87.614,852.139L116.69,928.336L141.54,864.6C142.447,862.26 143.223,859.813 143.868,857.259C144.512,854.705 144.858,852.998 144.906,852.139L178.063,852.139L178.063,857.223C176.727,857.271 175.02,857.486 172.943,857.868C170.866,858.25 169.35,858.608 168.396,858.942C166.772,859.515 165.674,860.47 165.101,861.807C164.528,863.143 164.242,864.6 164.242,866.175L164.242,939.437C164.242,941.108 164.528,942.516 165.101,943.662C165.674,944.808 166.772,945.81 168.396,946.67C169.255,947.147 170.783,947.589 172.979,947.995C175.175,948.401 176.918,948.627 178.207,948.675L178.207,953.76L133.304,953.76L133.304,948.675C134.928,948.627 137.016,948.46 139.571,948.174C142.125,947.887 143.879,947.481 144.834,946.956C146.314,946.049 147.4,945.011 148.093,943.841C148.785,942.671 149.131,941.203 149.131,939.437L149.131,865.531L148.057,865.531L113.396,952.113L109.815,952.113L76.8,863.74L75.869,863.74L75.869,924.398C75.869,930.27 76.239,934.734 76.979,937.79C77.72,940.845 78.853,943.041 80.381,944.378C81.432,945.381 83.604,946.336 86.898,947.243C90.192,948.15 92.341,948.627 93.343,948.675L93.343,953.76ZM634.449,953.76L592.268,953.76L592.268,948.675C593.414,948.58 595.073,948.436 597.245,948.245C599.417,948.054 600.909,947.768 601.721,947.386C603.153,946.813 604.204,945.942 604.872,944.772C605.54,943.602 605.875,942.086 605.875,940.225L605.875,866.891C605.875,865.363 605.564,863.967 604.944,862.702C604.323,861.437 603.249,860.446 601.721,859.73C600.432,859.109 598.868,858.56 597.03,858.083C595.192,857.605 593.605,857.319 592.268,857.223L592.268,852.139L634.449,852.139L634.449,857.223C633.112,857.271 631.477,857.486 629.543,857.868C627.61,858.25 626.165,858.608 625.211,858.942C623.587,859.515 622.501,860.47 621.952,861.807C621.403,863.143 621.129,864.6 621.129,866.175L621.129,897.685L668.896,897.685L668.896,866.891C668.896,865.363 668.585,863.967 667.965,862.702C667.344,861.437 666.27,860.446 664.742,859.73C663.453,859.109 661.889,858.56 660.051,858.083C658.213,857.605 656.626,857.319 655.289,857.223L655.289,852.139L697.47,852.139L697.47,857.223C696.133,857.271 694.498,857.486 692.564,857.868C690.631,858.25 689.186,858.608 688.231,858.942C686.608,859.515 685.522,860.47 684.973,861.807C684.424,863.143 684.149,864.6 684.149,866.175L684.149,939.437C684.149,941.108 684.424,942.516 684.973,943.662C685.522,944.808 686.608,945.81 688.231,946.67C689.043,947.1 690.487,947.529 692.564,947.959C694.641,948.389 696.276,948.627 697.47,948.675L697.47,953.76L655.289,953.76L655.289,948.675C656.435,948.58 658.094,948.436 660.266,948.245C662.438,948.054 663.93,947.768 664.742,947.386C666.174,946.813 667.225,945.942 667.893,944.772C668.561,943.602 668.896,942.086 668.896,940.225L668.896,904.059L621.129,904.059L621.129,939.437C621.129,941.108 621.403,942.516 621.952,943.662C622.501,944.808 623.587,945.81 625.211,946.67C626.022,947.1 627.466,947.529 629.543,947.959C631.62,948.389 633.255,948.627 634.449,948.675L634.449,953.76ZM562.104,879.71L557.162,879.71C556.733,877.991 555.957,875.95 554.835,873.587C553.713,871.224 552.46,868.992 551.075,866.891C549.643,864.695 548.079,862.773 546.384,861.126C544.69,859.479 543.054,858.536 541.479,858.297C539.999,858.106 538.137,857.963 535.893,857.868C533.649,857.772 531.572,857.725 529.662,857.725L525.509,857.725L525.509,939.007C525.509,940.583 525.843,942.027 526.511,943.34C527.18,944.653 528.35,945.667 530.021,946.383C530.88,946.718 532.682,947.171 535.427,947.744C538.173,948.317 540.309,948.627 541.837,948.675L541.837,953.76L493.855,953.76L493.855,948.675C495.192,948.58 497.233,948.389 499.978,948.102C502.723,947.816 504.621,947.458 505.672,947.028C507.247,946.407 508.405,945.512 509.145,944.342C509.885,943.173 510.255,941.609 510.255,939.652L510.255,857.725L506.101,857.725C504.621,857.725 502.783,857.76 500.587,857.832C498.391,857.904 496.29,858.059 494.285,858.297C492.709,858.488 491.074,859.431 489.379,861.126C487.684,862.821 486.121,864.743 484.688,866.891C483.256,869.04 481.991,871.319 480.893,873.73C479.795,876.141 479.031,878.134 478.601,879.71L473.588,879.71L473.588,852.139L562.104,852.139L562.104,879.71ZM285.285,936.214C287.958,931.869 289.904,926.952 291.121,921.461C292.339,915.971 292.948,909.836 292.948,903.057C292.948,896.086 292.267,889.688 290.907,883.864C289.546,878.039 287.553,873.074 284.927,868.968C282.301,864.91 279.007,861.747 275.044,859.479C271.081,857.211 266.546,856.077 261.437,856.077C255.708,856.077 250.838,857.39 246.828,860.016C242.817,862.642 239.547,866.151 237.017,870.544C234.629,874.745 232.851,879.662 231.681,885.296C230.512,890.93 229.927,896.85 229.927,903.057C229.927,909.932 230.547,916.138 231.789,921.676C233.03,927.215 234.988,932.132 237.661,936.429C240.239,940.63 243.486,943.913 247.401,946.276C251.316,948.639 255.994,949.821 261.437,949.821C266.546,949.821 271.153,948.627 275.259,946.24C279.365,943.853 282.707,940.511 285.285,936.214ZM141.676,672.17C146.164,676.849 149.673,682.494 152.203,689.107C154.734,695.719 155.999,703.036 155.999,711.057C155.999,719.125 154.71,726.454 152.132,733.042C149.554,739.631 145.973,745.241 141.39,749.872C136.95,754.455 131.793,757.988 125.921,760.471C120.049,762.953 113.794,764.195 107.158,764.195C100.092,764.195 93.563,762.87 87.571,760.22C81.58,757.57 76.435,753.882 72.138,749.156C67.841,744.524 64.464,738.903 62.005,732.29C59.546,725.678 58.317,718.6 58.317,711.057C58.317,702.797 59.606,695.433 62.184,688.963C64.762,682.494 68.319,676.896 72.854,672.17C77.342,667.491 82.558,663.91 88.502,661.428C94.446,658.945 100.665,657.704 107.158,657.704C113.89,657.704 120.239,658.969 126.207,661.499C132.175,664.03 137.331,667.586 141.676,672.17ZM512.912,761.76L470.731,761.76L470.731,756.675C471.877,756.58 473.536,756.436 475.708,756.245C477.88,756.054 479.372,755.768 480.184,755.386C481.616,754.813 482.667,753.942 483.335,752.772C484.003,751.602 484.338,750.086 484.338,748.225L484.338,674.891C484.338,673.363 484.027,671.967 483.407,670.702C482.786,669.437 481.712,668.446 480.184,667.73C478.895,667.109 477.331,666.56 475.493,666.083C473.655,665.605 472.068,665.319 470.731,665.223L470.731,660.139L512.912,660.139L512.912,665.223C511.575,665.271 509.94,665.486 508.006,665.868C506.073,666.25 504.628,666.608 503.674,666.942C502.05,667.515 500.964,668.47 500.415,669.807C499.866,671.143 499.591,672.6 499.591,674.175L499.591,705.685L547.358,705.685L547.358,674.891C547.358,673.363 547.048,671.967 546.427,670.702C545.807,669.437 544.733,668.446 543.205,667.73C541.916,667.109 540.352,666.56 538.514,666.083C536.676,665.605 535.088,665.319 533.752,665.223L533.752,660.139L575.933,660.139L575.933,665.223C574.596,665.271 572.961,665.486 571.027,665.868C569.093,666.25 567.649,666.608 566.694,666.942C565.071,667.515 563.985,668.47 563.436,669.807C562.887,671.143 562.612,672.6 562.612,674.175L562.612,747.437C562.612,749.108 562.887,750.516 563.436,751.662C563.985,752.808 565.071,753.81 566.694,754.67C567.506,755.1 568.95,755.529 571.027,755.959C573.104,756.389 574.739,756.627 575.933,756.675L575.933,761.76L533.752,761.76L533.752,756.675C534.897,756.58 536.557,756.436 538.729,756.245C540.901,756.054 542.393,755.768 543.205,755.386C544.637,754.813 545.687,753.942 546.356,752.772C547.024,751.602 547.358,750.086 547.358,748.225L547.358,712.059L499.591,712.059L499.591,747.437C499.591,749.108 499.866,750.516 500.415,751.662C500.964,752.808 502.05,753.81 503.674,754.67C504.485,755.1 505.929,755.529 508.006,755.959C510.083,756.389 511.718,756.627 512.912,756.675L512.912,761.76ZM690.029,684.631L684.658,684.631C683.703,681.002 681.638,677.147 678.463,673.065C675.288,668.983 672.269,666.751 669.404,666.369C667.924,666.178 666.157,666.035 664.104,665.939C662.052,665.844 659.712,665.796 657.086,665.796L641.116,665.796L641.116,706.187L652.575,706.187C656.251,706.187 658.936,705.841 660.631,705.148C662.326,704.456 663.818,703.298 665.107,701.675C666.157,700.29 667.053,698.44 667.793,696.125C668.533,693.809 669.022,691.625 669.261,689.572L674.632,689.572L674.632,729.318L669.261,729.318C669.07,727.027 668.557,724.604 667.721,722.049C666.886,719.495 666.014,717.645 665.107,716.499C663.627,714.637 661.944,713.42 660.058,712.847C658.173,712.274 655.678,711.988 652.575,711.988L641.116,711.988L641.116,742.495C641.116,745.551 641.331,747.962 641.761,749.728C642.19,751.495 643.026,752.832 644.267,753.739C645.509,754.646 647.203,755.231 649.352,755.493C651.5,755.756 654.556,755.887 658.519,755.887C660.094,755.887 662.171,755.887 664.749,755.887C667.327,755.887 669.499,755.792 671.266,755.601C673.08,755.41 674.954,755.064 676.888,754.562C678.821,754.061 680.194,753.381 681.006,752.521C683.202,750.23 685.505,746.756 687.916,742.101C690.327,737.447 691.867,734.021 692.535,731.825L697.692,731.825L695.758,761.76L611.396,761.76L611.396,756.675C612.828,756.58 614.738,756.377 617.125,756.066C619.512,755.756 621.064,755.434 621.78,755.1C623.308,754.383 624.37,753.452 624.967,752.307C625.564,751.161 625.862,749.705 625.862,747.938L625.862,674.891C625.862,673.316 625.6,671.919 625.075,670.702C624.549,669.484 623.451,668.494 621.78,667.73C620.491,667.109 618.761,666.56 616.588,666.083C614.416,665.605 612.685,665.319 611.396,665.223L611.396,660.139L690.029,660.139L690.029,684.631ZM440.567,687.71L435.625,687.71C435.196,685.991 434.42,683.95 433.298,681.587C432.176,679.224 430.923,676.992 429.538,674.891C428.106,672.695 426.542,670.773 424.847,669.126C423.152,667.479 421.517,666.536 419.942,666.297C418.462,666.106 416.6,665.963 414.356,665.868C412.112,665.772 410.035,665.725 408.125,665.725L403.972,665.725L403.972,747.007C403.972,748.583 404.306,750.027 404.974,751.34C405.643,752.653 406.812,753.667 408.483,754.383C409.343,754.718 411.145,755.171 413.89,755.744C416.636,756.317 418.772,756.627 420.3,756.675L420.3,761.76L372.318,761.76L372.318,756.675C373.655,756.58 375.696,756.389 378.441,756.102C381.186,755.816 383.084,755.458 384.134,755.028C385.71,754.407 386.868,753.512 387.608,752.342C388.348,751.173 388.718,749.609 388.718,747.652L388.718,665.725L384.564,665.725C383.084,665.725 381.246,665.76 379.05,665.832C376.854,665.904 374.753,666.059 372.748,666.297C371.172,666.488 369.537,667.431 367.842,669.126C366.147,670.821 364.584,672.743 363.151,674.891C361.719,677.04 360.454,679.319 359.356,681.73C358.258,684.141 357.494,686.134 357.064,687.71L352.051,687.71L352.051,660.139L440.567,660.139L440.567,687.71ZM269.594,685.562L264.223,685.562C263.22,681.79 261.132,677.756 257.957,673.459C254.782,669.162 251.738,666.799 248.826,666.369C247.346,666.178 245.591,666.035 243.562,665.939C241.533,665.844 239.23,665.796 236.651,665.796L219.607,665.796L219.607,706.616L231.28,706.616C234.813,706.616 237.558,706.246 239.516,705.506C241.473,704.766 243.144,703.633 244.529,702.105C245.484,701.054 246.355,699.419 247.143,697.199C247.931,694.979 248.444,692.604 248.683,690.073L254.125,690.073L254.125,729.963L248.683,729.963C248.539,727.862 248.05,725.475 247.215,722.801C246.379,720.128 245.484,718.194 244.529,717.001C243.097,715.234 241.294,714.029 239.122,713.384C236.95,712.74 234.336,712.417 231.28,712.417L219.607,712.417L219.607,747.437C219.607,749.012 219.917,750.421 220.538,751.662C221.159,752.903 222.257,753.906 223.832,754.67C224.549,755.004 226.1,755.41 228.487,755.887C230.874,756.365 232.689,756.627 233.93,756.675L233.93,761.76L189.887,761.76L189.887,756.675C191.319,756.58 193.229,756.424 195.616,756.21C198.003,755.995 199.555,755.72 200.271,755.386C201.703,754.765 202.742,753.846 203.386,752.629C204.031,751.411 204.353,749.943 204.353,748.225L204.353,674.891C204.353,673.316 204.091,671.919 203.565,670.702C203.04,669.484 201.942,668.494 200.271,667.73C198.982,667.109 197.251,666.56 195.079,666.083C192.907,665.605 191.176,665.319 189.887,665.223L189.887,660.139L269.594,660.139L269.594,685.562ZM131.006,744.214C133.679,739.869 135.625,734.952 136.842,729.461C138.06,723.971 138.668,717.836 138.668,711.057C138.668,704.086 137.988,697.688 136.627,691.864C135.267,686.039 133.273,681.074 130.647,676.968C128.022,672.91 124.727,669.747 120.765,667.479C116.802,665.211 112.266,664.077 107.158,664.077C101.429,664.077 96.559,665.39 92.549,668.016C88.538,670.642 85.268,674.151 82.737,678.544C80.35,682.745 78.572,687.662 77.402,693.296C76.232,698.93 75.647,704.85 75.647,711.057C75.647,717.932 76.268,724.138 77.509,729.676C78.751,735.215 80.708,740.132 83.382,744.429C85.96,748.63 89.206,751.913 93.121,754.276C97.036,756.639 101.715,757.821 107.158,757.821C112.266,757.821 116.874,756.627 120.979,754.24C125.085,751.853 128.427,748.511 131.006,744.214ZM524.793,473.223C523.456,473.271 521.797,473.45 519.815,473.76C517.834,474.071 516.151,474.465 514.767,474.942C513.143,475.515 512.045,476.47 511.472,477.807C510.899,479.143 510.613,480.6 510.613,482.175L510.613,542.403C510.613,545.554 509.98,548.896 508.715,552.429C507.45,555.962 505.6,559.113 503.165,561.882C500.348,565.129 496.994,567.659 493.103,569.473C489.212,571.287 484.76,572.195 479.747,572.195C471.965,572.195 465.651,570.01 460.805,565.642C455.959,561.273 453.536,555.389 453.536,547.989C453.536,544.742 454.372,541.866 456.043,539.359C457.714,536.853 460.149,535.6 463.347,535.6C466.212,535.6 468.516,536.399 470.258,537.999C472.001,539.598 472.872,541.711 472.872,544.336C472.872,545.864 472.562,547.392 471.941,548.92C471.32,550.448 470.628,551.808 469.864,553.002C469.148,554.1 468.336,555.389 467.429,556.869C466.522,558.349 465.878,559.686 465.496,560.879C466.498,562.455 468.062,563.84 470.187,565.033C472.311,566.227 475.164,566.823 478.744,566.823C482.23,566.823 485.082,566.024 487.302,564.424C489.522,562.825 491.182,560.688 492.28,558.015C493.33,555.532 494.082,552.477 494.535,548.848C494.989,545.22 495.216,541.162 495.216,536.674L495.216,482.891C495.216,481.22 494.941,479.824 494.392,478.702C493.843,477.58 492.709,476.589 490.991,475.73C489.511,474.966 487.66,474.381 485.44,473.975C483.22,473.569 481.394,473.319 479.962,473.223L479.962,468.139L524.793,468.139L524.793,473.223ZM363.359,569.76L321.679,569.76L321.679,564.675C322.968,564.58 325.141,564.114 328.196,563.279C331.252,562.443 333.162,561.691 333.925,561.023C335.596,559.686 336.742,557.645 337.363,554.9C337.984,552.154 338.294,547.464 338.294,540.827L338.294,490.769C338.294,488.573 337.912,486.376 337.148,484.18C336.384,481.984 335.358,480.289 334.069,479.096C332.35,477.52 330.022,476.171 327.086,475.049C324.15,473.927 321.775,473.319 319.961,473.223L319.961,468.139L348.965,468.139L406.113,545.626L406.113,497.286C406.113,491.366 405.731,486.818 404.967,483.643C404.203,480.468 403.105,478.356 401.673,477.305C400.336,476.398 398.152,475.515 395.12,474.656C392.088,473.796 389.785,473.319 388.209,473.223L388.209,468.139L429.531,468.139L429.531,473.223C428.194,473.271 426.141,473.653 423.372,474.369C420.603,475.085 418.622,475.825 417.428,476.589C415.709,477.783 414.552,480.074 413.955,483.464C413.358,486.854 413.06,491.151 413.06,496.355L413.06,570.762L406.829,570.762L345.241,487.618L345.241,540.04C345.241,545.912 345.611,550.424 346.351,553.575C347.091,556.726 348.225,558.97 349.752,560.307C350.85,561.357 353.118,562.336 356.556,563.243C359.993,564.15 362.261,564.627 363.359,564.675L363.359,569.76ZM149.704,569.76L108.024,569.76L108.024,564.675C109.313,564.58 111.486,564.114 114.541,563.279C117.597,562.443 119.507,561.691 120.271,561.023C121.942,559.686 123.087,557.645 123.708,554.9C124.329,552.154 124.639,547.464 124.639,540.827L124.639,490.769C124.639,488.573 124.257,486.376 123.493,484.18C122.729,481.984 121.703,480.289 120.414,479.096C118.695,477.52 116.368,476.171 113.431,475.049C110.495,473.927 108.12,473.319 106.306,473.223L106.306,468.139L135.31,468.139L192.458,545.626L192.458,497.286C192.458,491.366 192.076,486.818 191.312,483.643C190.548,480.468 189.45,478.356 188.018,477.305C186.681,476.398 184.497,475.515 181.465,474.656C178.433,473.796 176.13,473.319 174.554,473.223L174.554,468.139L215.876,468.139L215.876,473.223C214.539,473.271 212.486,473.653 209.717,474.369C206.948,475.085 204.967,475.825 203.773,476.589C202.054,477.783 200.897,480.074 200.3,483.464C199.703,486.854 199.405,491.151 199.405,496.355L199.405,570.762L193.174,570.762L131.586,487.618L131.586,540.04C131.586,545.912 131.956,550.424 132.696,553.575C133.436,556.726 134.57,558.97 136.097,560.307C137.195,561.357 139.463,562.336 142.901,563.243C146.338,564.15 148.606,564.627 149.704,564.675L149.704,569.76ZM585.966,569.76L547.724,569.76L547.724,564.675C548.965,564.58 550.517,564.305 552.379,563.851C554.241,563.398 555.768,562.789 556.962,562.025C558.872,560.736 560.352,559.387 561.402,557.979C562.452,556.571 563.479,554.625 564.481,552.142C569.59,539.395 575.224,525.072 581.382,509.174C587.541,493.275 593.032,479.119 597.854,466.706L603.583,466.706L637.457,554.363C638.173,556.225 638.984,557.728 639.892,558.874C640.799,560.02 642.064,561.142 643.687,562.24C644.785,562.909 646.218,563.47 647.984,563.923C649.751,564.377 651.231,564.627 652.424,564.675L652.424,569.76L610.1,569.76L610.1,564.675C613.824,564.436 616.915,563.959 619.374,563.243C621.833,562.527 623.062,561.643 623.062,560.593C623.062,560.163 623.014,559.638 622.919,559.017C622.823,558.397 622.68,557.848 622.489,557.37L614.039,534.597L578.446,534.597C577.109,537.939 576.023,540.851 575.188,543.334C574.352,545.817 573.6,548.108 572.932,550.209C572.311,552.262 571.882,553.933 571.643,555.222C571.404,556.511 571.285,557.561 571.285,558.373C571.285,560.283 572.789,561.763 575.797,562.813C578.804,563.863 582.194,564.484 585.966,564.675L585.966,569.76ZM290.513,569.76L244.751,569.76L244.751,564.675C246.04,564.58 247.902,564.436 250.337,564.245C252.772,564.054 254.491,563.768 255.493,563.386C257.069,562.765 258.215,561.918 258.931,560.844C259.647,559.769 260.005,558.277 260.005,556.368L260.005,482.748C260.005,481.077 259.742,479.68 259.217,478.559C258.692,477.437 257.451,476.494 255.493,475.73C254.061,475.157 252.259,474.62 250.086,474.118C247.914,473.617 246.136,473.319 244.751,473.223L244.751,468.139L290.513,468.139L290.513,473.223C289.033,473.271 287.266,473.45 285.213,473.76C283.16,474.071 281.37,474.465 279.842,474.942C278.028,475.515 276.81,476.446 276.19,477.735C275.569,479.024 275.259,480.456 275.259,482.032L275.259,555.58C275.259,557.156 275.605,558.552 276.297,559.769C276.989,560.987 278.171,561.954 279.842,562.67C280.845,563.052 282.48,563.47 284.748,563.923C287.016,564.377 288.937,564.627 290.513,564.675L290.513,569.76ZM611.461,528.223L596.063,488.835L580.953,528.223L611.461,528.223Z" style="fill:rgb(28,19,76);fill-rule:nonzero;stroke:rgb(28,19,76);stroke-width:1px;"/>
        </g>
        <g id="vms" transform="matrix(0.861845,0,0,0.903449,0,0)">
            <path d="M343.178,218.832C349.351,222.488 355.155,227.034 360.589,232.469C377.196,249.071 385.5,269.1 385.5,292.575C385.5,316.03 377.196,336.069 360.589,352.681C344,369.264 323.964,377.575 300.5,377.575C277.036,377.575 257.018,369.264 240.411,352.681C223.804,336.069 215.5,316.03 215.5,292.575C215.5,269.1 223.804,249.071 240.411,232.469C245.835,227.05 251.622,222.515 257.775,218.865C276.202,228.534 298.136,231.492 318.705,227.566C327.254,225.934 335.497,222.939 343.178,218.832ZM378.992,244.866C381.997,240.541 385.47,236.408 389.411,232.469C406.018,215.876 426.036,207.575 449.5,207.575C472.964,207.575 493,215.876 509.589,232.469C526.196,249.071 534.5,269.1 534.5,292.575C534.5,316.03 526.196,336.069 509.589,352.681C493,369.264 472.964,377.575 449.5,377.575C426.036,377.575 406.018,369.264 389.411,352.681C385.467,348.735 381.991,344.597 378.984,340.265C394.072,315.797 396.459,283.52 385.218,256.884C383.45,252.693 381.362,248.681 378.992,244.866ZM324.304,282.371C318.679,282.371 314.107,286.933 314.107,292.575C314.107,298.207 318.661,302.769 324.304,302.769L324.369,302.769C329.964,302.733 334.5,298.185 334.5,292.575C334.5,286.955 329.982,282.407 324.37,282.371L324.304,282.371ZM273.304,282.371C267.679,282.371 263.107,286.933 263.107,292.575C263.107,298.207 267.661,302.769 273.304,302.769L273.369,302.769C278.964,302.733 283.5,298.185 283.5,292.575C283.5,286.955 278.982,282.407 273.37,282.371L273.304,282.371ZM473.304,302.769C478.929,302.769 483.5,298.207 483.5,292.575C483.5,286.933 478.946,282.371 473.304,282.371C467.679,282.371 463.107,286.933 463.107,292.575C463.107,298.207 467.661,302.769 473.304,302.769ZM422.304,302.769C427.929,302.769 432.5,298.207 432.5,292.575C432.5,286.933 427.946,282.371 422.304,282.371C416.679,282.371 412.107,286.933 412.107,292.575C412.107,298.207 416.661,302.769 422.304,302.769ZM238.186,195.381C223.062,179.23 215.5,159.958 215.5,137.575C215.5,114.1 223.804,94.071 240.411,77.469C257.018,60.876 277.036,52.575 300.5,52.575C323.964,52.575 344,60.876 360.589,77.469C364.524,81.403 367.993,85.529 370.995,89.848C368.626,93.686 366.544,97.707 364.782,101.884C353.388,128.884 356.446,160.547 371.139,185.088C368.743,188.559 366.046,191.906 363.049,195.13L363.048,195.13L363.048,195.131C362.89,195.301 362.731,195.47 362.572,195.64L362.567,195.645L362.555,195.657L362.428,195.791L362.348,195.876L362.324,195.901L362.304,195.922L362.247,195.982L362.087,196.15L362.08,196.157L362.079,196.158C362.003,196.237 361.927,196.316 361.851,196.395L361.835,196.412L361.8,196.448L361.701,196.551L361.624,196.63L361.588,196.667L361.562,196.693L361.517,196.74L361.354,196.908L361.34,196.921L361.338,196.924C361.263,197 361.189,197.076 361.114,197.152L361.091,197.175L361.05,197.216L360.963,197.305L360.881,197.387L360.841,197.428L360.815,197.454L360.776,197.493L360.589,197.681C344.065,214.199 324.121,222.51 300.775,222.574L300.5,222.575C277.036,222.575 257.018,214.264 240.411,197.681C240.335,197.604 240.259,197.528 240.183,197.452L240.159,197.428L240.114,197.382L240.023,197.291L239.95,197.217L239.909,197.175L239.878,197.143L239.83,197.095L239.694,196.956L239.66,196.921L239.651,196.912C239.576,196.835 239.5,196.758 239.425,196.681L239.412,196.667L239.374,196.627L239.257,196.507L239.197,196.445L239.165,196.412L239.132,196.378L239.067,196.31L238.952,196.19L238.92,196.157L238.908,196.144C238.753,195.983 238.6,195.821 238.447,195.66L238.433,195.645L238.413,195.623L238.316,195.52L238.203,195.399L238.192,195.388L238.186,195.381ZM407.062,211.449C400.802,207.771 394.919,203.181 389.411,197.681C372.804,181.069 364.5,161.03 364.5,137.575C364.5,114.1 372.804,94.071 389.411,77.469C406.018,60.876 426.036,52.575 449.5,52.575C472.964,52.575 493,60.876 509.589,77.469C526.196,94.071 534.5,114.1 534.5,137.575C534.5,161.03 526.196,181.069 509.589,197.681C504.056,203.212 498.139,207.823 491.838,211.513C479.619,205.131 466.073,201.42 452.356,200.957C452.356,200.957 452.351,200.957 452.351,200.957L452.185,200.951L452.185,200.951C452.185,200.951 452.169,200.951 452.169,200.951L452.015,200.946L452.015,200.946L452.015,200.946L451.987,200.945L451.844,200.941L451.844,200.941L451.844,200.941L451.807,200.94L451.673,200.937L451.673,200.937L451.673,200.937L451.627,200.936L451.502,200.932L451.502,200.932L451.502,200.932L451.447,200.931L451.331,200.929L451.331,200.929L451.331,200.929L451.269,200.927L451.16,200.925L451.16,200.925L451.16,200.925L451.091,200.924L450.99,200.922L450.99,200.922L450.99,200.922L450.914,200.92L450.819,200.919L450.819,200.919L450.819,200.919L450.737,200.918L450.648,200.916L450.648,200.916L450.648,200.916L450.561,200.915L450.477,200.914L450.477,200.914L450.477,200.914L450.384,200.913L450.306,200.912L450.306,200.912L450.306,200.912L450.206,200.911L450.135,200.911C450.135,200.911 450.135,200.911 450.135,200.911L450.022,200.91L449.964,200.909C449.907,200.909 449.85,200.909 449.793,200.909C449.614,200.908 449.435,200.908 449.256,200.909L449.244,200.909L449.061,200.91L448.878,200.91L448.723,200.911C448.592,200.912 448.461,200.913 448.329,200.915C448.272,200.915 448.215,200.916 448.158,200.917C448.158,200.917 448.1,200.918 448.1,200.918L447.986,200.92L447.986,200.92L447.986,200.92L447.916,200.921L447.815,200.922L447.815,200.922L447.815,200.922L447.739,200.924L447.643,200.926L447.643,200.926L447.643,200.926L447.563,200.927L447.472,200.929L447.472,200.929L447.472,200.929L447.388,200.931L447.301,200.933L447.301,200.933L447.301,200.933L447.213,200.935L447.13,200.937L447.13,200.937L447.13,200.937L447.038,200.94L446.959,200.942L446.959,200.942L446.959,200.942L446.863,200.945L446.787,200.947L446.787,200.947L446.787,200.947L446.687,200.95L446.616,200.952L446.616,200.952L446.616,200.952L446.512,200.956L446.445,200.958L446.445,200.958L446.445,200.958L446.336,200.962L446.274,200.964L446.274,200.964L446.274,200.964L446.159,200.968L446.104,200.97L446.104,200.97L446.104,200.97L445.983,200.974L445.933,200.976L445.933,200.976L445.933,200.976L445.806,200.981L445.762,200.983L445.762,200.983L445.762,200.983L445.629,200.989L445.591,200.99L445.591,200.99L445.591,200.99L445.451,200.997L445.421,200.998L445.421,200.998L445.421,200.998L445.273,201.005L445.25,201.006L445.25,201.006L445.25,201.006L445.095,201.013L445.079,201.014L445.079,201.014L445.079,201.014L444.916,201.022L444.909,201.022L444.909,201.022C431.499,201.701 418.625,205.375 407.062,211.449ZM324.304,147.769C329.929,147.769 334.5,143.207 334.5,137.575C334.5,131.933 329.946,127.371 324.304,127.371C318.679,127.371 314.107,131.933 314.107,137.575C314.107,143.207 318.661,147.769 324.304,147.769ZM273.304,147.769C278.929,147.769 283.5,143.207 283.5,137.575C283.5,131.933 278.946,127.371 273.304,127.371C267.679,127.371 263.107,131.933 263.107,137.575C263.107,143.207 267.661,147.769 273.304,147.769ZM473.304,147.769C478.929,147.769 483.5,143.207 483.5,137.575C483.5,131.933 478.946,127.371 473.304,127.371C467.679,127.371 463.107,131.933 463.107,137.575C463.107,143.207 467.661,147.769 473.304,147.769ZM422.304,147.769C427.929,147.769 432.5,143.207 432.5,137.575C432.5,131.933 427.946,127.371 422.304,127.371C416.679,127.371 412.107,131.933 412.107,137.575C412.107,143.207 416.661,147.769 422.304,147.769Z" style="fill:rgb(28,19,76);"/>
        </g>
        <g id="masks" transform="matrix(0.523395,0,0,1.00584,-2379.62,-34.1804)">
            <g id="donnie" transform="matrix(1.64664,0,0,0.898204,-6429.19,-465.269)">
                <path d="M6962.61,872.204C7003.91,872.204 7037.4,861.546 7037.4,848.408C7037.4,835.251 7003.92,824.602 6962.61,824.602C6921.3,824.602 6887.8,835.26 6887.8,848.408C6887.8,861.546 6921.29,872.204 6962.61,872.204ZM6989.8,858.602C6995.43,858.602 7000,854.04 7000,848.408C7000,842.767 6995.45,838.204 6989.8,838.204C6984.18,838.204 6979.61,842.767 6979.61,848.408C6979.61,854.04 6984.16,858.602 6989.8,858.602ZM6938.8,858.602C6944.43,858.602 6949,854.04 6949,848.408C6949,842.767 6944.45,838.204 6938.8,838.204C6933.18,838.204 6928.61,842.767 6928.61,848.408C6928.61,854.04 6933.16,858.602 6938.8,858.602Z" style="fill:rgb(148,91,155);"/>
            </g>
            <g id="raph" transform="matrix(1.64664,0,0,0.898204,-6429.19,-465.269)">
                <path d="M7056.41,832.341C7070.09,827.585 7089.75,824.602 7111.61,824.602C7152.92,824.602 7186.4,835.251 7186.4,848.408C7186.4,861.546 7152.91,872.204 7111.61,872.204C7089.71,872.204 7070.01,869.211 7056.33,864.441C7058.17,853.859 7058.22,842.93 7056.41,832.341ZM7087.8,858.602C7093.43,858.602 7098,854.04 7098,848.408C7098,842.767 7093.45,838.204 7087.8,838.204C7082.18,838.204 7077.61,842.767 7077.61,848.408C7077.61,854.04 7082.16,858.602 7087.8,858.602ZM7138.8,858.602C7144.43,858.602 7149,854.04 7149,848.408C7149,842.767 7144.45,838.204 7138.8,838.204C7133.18,838.204 7128.61,842.767 7128.61,848.408C7128.61,854.04 7133.16,858.602 7138.8,858.602Z" style="fill:rgb(225,49,32);"/>
            </g>
            <g id="leo" transform="matrix(1.64664,0,0,0.898204,-6429.19,-465.269)">
                <path d="M7111.61,717.204C7152.91,717.204 7186.4,706.546 7186.4,693.408C7186.4,680.251 7152.92,669.602 7111.61,669.602C7070.3,669.602 7036.8,680.26 7036.8,693.408C7036.8,706.546 7070.29,717.204 7111.61,717.204ZM7087.8,703.602C7093.43,703.602 7098,699.04 7098,693.408C7098,687.767 7093.45,683.204 7087.8,683.204C7082.18,683.204 7077.61,687.767 7077.61,693.408C7077.61,699.04 7082.16,703.602 7087.8,703.602ZM7138.8,703.602C7144.43,703.602 7149,699.04 7149,693.408C7149,687.767 7144.45,683.204 7138.8,683.204C7133.18,683.204 7128.61,687.767 7128.61,693.408C7128.61,699.04 7133.16,703.602 7138.8,703.602Z" style="fill:rgb(23,178,239);"/>
            </g>
            <g id="mickey" transform="matrix(1.64664,0,0,0.898204,-6429.19,-465.269)">
                <path d="M7024.44,706.796C7010.98,713.078 6988.31,717.204 6962.61,717.204C6921.29,717.204 6887.8,706.546 6887.8,693.408C6887.8,680.26 6921.3,669.602 6962.61,669.602C6988.17,669.602 7010.73,673.679 7024.22,679.904C7022.99,688.837 7023.09,697.92 7024.44,706.796ZM6989.8,703.602C6995.43,703.602 7000,699.04 7000,693.408C7000,687.767 6995.45,683.204 6989.8,683.204C6984.18,683.204 6979.61,687.767 6979.61,693.408C6979.61,699.04 6984.16,703.602 6989.8,703.602ZM6938.8,703.602C6944.43,703.602 6949,699.04 6949,693.408C6949,687.767 6944.45,683.204 6938.8,683.204C6933.18,683.204 6928.61,687.767 6928.61,693.408C6928.61,699.04 6933.16,703.602 6938.8,703.602ZM7036.61,689.936C7037.13,691.069 7037.4,692.229 7037.4,693.408C7037.4,694.573 7037.14,695.719 7036.63,696.839C7036.53,694.539 7036.52,692.236 7036.61,689.936Z" style="fill:rgb(234,159,26);"/>
            </g>
        </g>
    </g>
</svg>
